<svg xmlns="http://www.w3.org/2000/svg" xmlns:xlink="http://www.w3.org/1999/xlink" width="500" zoomAndPan="magnify" viewBox="0 0 375 374.999991" height="500" preserveAspectRatio="xMidYMid meet" version="1.0"><defs><g/><clipPath id="5ebf9411d2"><path d="M 177 93 L 241 93 L 241 143.121094 L 177 143.121094 Z M 177 93 " clip-rule="nonzero"/></clipPath></defs><g fill="#38b6ff" fill-opacity="1"><g transform="translate(37.500002, 249.097284)"><g><path d="M 59 -81.671875 C 56.09375 -82.367188 53.738281 -83.867188 51.9375 -86.171875 C 50.132812 -88.472656 49.335938 -91.078125 49.546875 -93.984375 C 49.640625 -95.285156 50.238281 -96.3125 51.34375 -97.0625 C 52.445312 -97.8125 53.597656 -98.007812 54.796875 -97.65625 C 55.992188 -97.300781 56.796875 -96.425781 57.203125 -95.03125 C 57.703125 -92.925781 58.773438 -91.671875 60.421875 -91.265625 C 62.078125 -90.867188 63.726562 -91.171875 65.375 -92.171875 C 67.03125 -93.171875 68.257812 -94.425781 69.0625 -95.9375 C 70.65625 -98.632812 71.328125 -101.554688 71.078125 -104.703125 C 70.828125 -107.859375 69.601562 -110.585938 67.40625 -112.890625 C 63.601562 -116.492188 58.25 -118.242188 51.34375 -118.140625 C 46.34375 -118.046875 41.289062 -116.5 36.1875 -113.5 C 31.875 -110.988281 28.671875 -107.332031 26.578125 -102.53125 C 24.867188 -98.53125 24.21875 -94.476562 24.625 -90.375 C 25.625 -81.96875 31.273438 -73.5625 41.578125 -65.15625 C 43.484375 -63.75 47.515625 -61.019531 53.671875 -56.96875 C 59.828125 -52.914062 64.304688 -49.4375 67.109375 -46.53125 C 71.304688 -42.226562 74.28125 -37.273438 76.03125 -31.671875 C 77.789062 -26.066406 78.066406 -20.363281 76.859375 -14.5625 C 75.660156 -8.957031 73.082031 -3.976562 69.125 0.375 C 65.175781 4.726562 60.722656 7.90625 55.765625 9.90625 C 50.816406 11.90625 45.515625 12.453125 39.859375 11.546875 C 34.203125 10.648438 29.222656 8.101562 24.921875 3.90625 C 20.710938 -0.195312 18.257812 -5.148438 17.5625 -10.953125 C 16.863281 -16.765625 18.46875 -21.972656 22.375 -26.578125 C 25.875 -30.273438 30.175781 -32.347656 35.28125 -32.796875 C 40.382812 -33.253906 44.785156 -31.679688 48.484375 -28.078125 C 49.691406 -26.867188 50.242188 -25.515625 50.140625 -24.015625 C 50.035156 -22.515625 49.457031 -21.3125 48.40625 -20.40625 C 47.363281 -19.507812 46.140625 -18.9375 44.734375 -18.6875 C 43.335938 -18.4375 41.988281 -18.960938 40.6875 -20.265625 C 39.382812 -21.367188 37.878906 -21.816406 36.171875 -21.609375 C 34.472656 -21.410156 32.972656 -20.710938 31.671875 -19.515625 C 30.171875 -17.910156 29.492188 -16.109375 29.640625 -14.109375 C 29.796875 -12.109375 30.523438 -10.207031 31.828125 -8.40625 C 34.628906 -4.5 38.882812 -2.597656 44.59375 -2.703125 C 48.59375 -2.703125 52.34375 -4.503906 55.84375 -8.109375 C 58.75 -11.109375 60.550781 -14.660156 61.25 -18.765625 C 61.351562 -19.160156 61.40625 -19.609375 61.40625 -20.109375 C 61.40625 -20.816406 61.40625 -21.421875 61.40625 -21.921875 C 61.40625 -22.816406 61.300781 -23.613281 61.09375 -24.3125 C 60.695312 -26.21875 59.898438 -28.125 58.703125 -30.03125 C 58.296875 -30.726562 57.742188 -31.425781 57.046875 -32.125 C 56.441406 -32.820312 55.640625 -33.671875 54.640625 -34.671875 C 53.046875 -36.179688 51.492188 -37.484375 49.984375 -38.578125 C 48.785156 -39.484375 47.410156 -40.4375 45.859375 -41.4375 C 44.304688 -42.4375 42.726562 -43.460938 41.125 -44.515625 C 39.53125 -45.566406 38.132812 -46.492188 36.9375 -47.296875 C 24.519531 -56.097656 16.160156 -65.050781 11.859375 -74.15625 C 8.953125 -80.164062 7.5 -86.347656 7.5 -92.703125 C 7.5 -99.054688 8.898438 -105.238281 11.703125 -111.25 C 14.503906 -117.144531 18.582031 -121.992188 23.9375 -125.796875 C 29.300781 -129.609375 35.234375 -131.910156 41.734375 -132.703125 C 47.835938 -133.410156 53.59375 -132.660156 59 -130.453125 C 64.5 -128.253906 69.203125 -124.503906 73.109375 -119.203125 C 75.515625 -116.097656 77.265625 -112.691406 78.359375 -108.984375 C 79.460938 -105.285156 79.738281 -101.457031 79.1875 -97.5 C 78.632812 -93.550781 77.109375 -90.125 74.609375 -87.21875 C 73.304688 -85.820312 71.804688 -84.625 70.109375 -83.625 C 68.410156 -82.625 66.609375 -81.945312 64.703125 -81.59375 C 62.796875 -81.238281 60.894531 -81.265625 59 -81.671875 Z M 59 -81.671875 "/></g></g></g><g fill="#38b6ff" fill-opacity="1"><g transform="translate(117.96317, 249.097284)"><g><path d="M 48.796875 -21.921875 C 51.398438 -20.015625 52.800781 -17.632812 53 -14.78125 C 53.195312 -11.9375 52.492188 -9.285156 50.890625 -6.828125 C 49.296875 -4.378906 47.171875 -2.203125 44.515625 -0.296875 C 41.867188 1.597656 39.289062 2.695312 36.78125 3 C 30.976562 3.601562 25.972656 1.878906 21.765625 -2.171875 C 17.566406 -6.222656 14.515625 -11.253906 12.609375 -17.265625 C 9.609375 -26.367188 8.109375 -39.328125 8.109375 -56.140625 C 8.109375 -70.753906 8.859375 -85.21875 10.359375 -99.53125 C 5.359375 -99.632812 1.957031 -99.6875 0.15625 -99.6875 C -1.144531 -99.78125 -2.070312 -100.351562 -2.625 -101.40625 C -3.175781 -102.457031 -3.175781 -103.53125 -2.625 -104.625 C -2.070312 -105.726562 -1.144531 -106.28125 0.15625 -106.28125 C 3.957031 -106.488281 7.660156 -106.640625 11.265625 -106.734375 C 12.367188 -116.242188 13.820312 -125.65625 15.625 -134.96875 C 16.019531 -136.96875 17.144531 -138.21875 19 -138.71875 C 20.851562 -139.21875 22.578125 -138.96875 24.171875 -137.96875 C 25.773438 -136.96875 26.523438 -135.46875 26.421875 -133.46875 C 26.222656 -129.65625 25.875 -120.847656 25.375 -107.046875 C 31.082031 -107.140625 35.488281 -106.882812 38.59375 -106.28125 C 39.988281 -105.988281 40.6875 -105.015625 40.6875 -103.359375 C 40.6875 -101.710938 39.988281 -100.738281 38.59375 -100.4375 C 35.1875 -99.53125 30.679688 -99.128906 25.078125 -99.234375 C 24.878906 -95.828125 24.726562 -93.472656 24.625 -92.171875 C 23.925781 -76.265625 23.578125 -63.003906 23.578125 -52.390625 C 23.671875 -44.785156 24.070312 -38.332031 24.78125 -33.03125 C 25.78125 -25.820312 27.03125 -20.46875 28.53125 -16.96875 C 29.425781 -14.96875 30.675781 -13.210938 32.28125 -11.703125 C 33.882812 -10.203125 35.6875 -9.703125 37.6875 -10.203125 C 38.582031 -10.410156 39.679688 -11.113281 40.984375 -12.3125 C 42.285156 -13.507812 42.640625 -14.507812 42.046875 -15.3125 C 41.242188 -16.507812 41.140625 -17.859375 41.734375 -19.359375 C 42.335938 -20.867188 43.3125 -21.875 44.65625 -22.375 C 46.007812 -22.875 47.390625 -22.722656 48.796875 -21.921875 Z M 48.796875 -21.921875 "/></g></g></g><g fill="#38b6ff" fill-opacity="1"><g transform="translate(156.093118, 249.097284)"><g><path d="M 61.703125 -74.3125 C 63.304688 -75.613281 64.804688 -75.585938 66.203125 -74.234375 C 67.609375 -72.878906 67.660156 -71.40625 66.359375 -69.8125 C 63.148438 -66.101562 58.09375 -63.25 51.1875 -61.25 C 50.488281 -54.34375 47.835938 -48.335938 43.234375 -43.234375 C 40.535156 -40.234375 37.179688 -38.15625 33.171875 -37 C 29.171875 -35.851562 25.269531 -35.578125 21.46875 -36.171875 C 17.664062 -36.773438 14.132812 -38.351562 10.875 -40.90625 C 7.625 -43.457031 5.398438 -46.738281 4.203125 -50.75 C 2.703125 -55.445312 3.023438 -60.625 5.171875 -66.28125 C 7.328125 -71.9375 10.609375 -76.515625 15.015625 -80.015625 C 16.710938 -83.015625 19.410156 -85.085938 23.109375 -86.234375 C 26.816406 -87.390625 30.472656 -87.566406 34.078125 -86.765625 C 38.378906 -85.867188 42.03125 -83.789062 45.03125 -80.53125 C 48.039062 -77.28125 49.945312 -73.457031 50.75 -69.0625 C 50.75 -69.0625 50.796875 -69.007812 50.890625 -68.90625 C 55.191406 -70.207031 58.796875 -72.007812 61.703125 -74.3125 Z M 29.125 -76.40625 C 26.425781 -76.707031 24.675781 -76.109375 23.875 -74.609375 C 23.570312 -73.910156 23.867188 -73.109375 24.765625 -72.203125 C 26.265625 -70.503906 29.421875 -69.054688 34.234375 -67.859375 C 35.535156 -67.554688 36.984375 -67.40625 38.578125 -67.40625 C 37.578125 -73.007812 34.425781 -76.007812 29.125 -76.40625 Z M 24.625 -47.890625 C 28.925781 -47.285156 32.523438 -48.988281 35.421875 -53 C 36.523438 -54.5 37.378906 -56.300781 37.984375 -58.40625 C 32.472656 -57.800781 27.316406 -58.695312 22.515625 -61.09375 C 20.316406 -62.195312 18.46875 -63.648438 16.96875 -65.453125 C 16.0625 -63.046875 15.507812 -60.992188 15.3125 -59.296875 C 15.207031 -57.992188 15.207031 -56.894531 15.3125 -56 C 15.3125 -55.300781 15.410156 -54.75 15.609375 -54.34375 C 15.910156 -53.644531 16.3125 -52.992188 16.8125 -52.390625 C 17.3125 -51.796875 17.835938 -51.242188 18.390625 -50.734375 C 18.941406 -50.234375 19.566406 -49.785156 20.265625 -49.390625 C 20.960938 -48.992188 21.660156 -48.671875 22.359375 -48.421875 C 23.066406 -48.171875 23.820312 -47.992188 24.625 -47.890625 Z M 24.625 -47.890625 "/></g></g></g><g fill="#38b6ff" fill-opacity="1"><g transform="translate(209.084697, 249.097284)"><g><path d="M 30.78125 -83.3125 C 34.882812 -83.8125 38.359375 -82.632812 41.203125 -79.78125 C 44.054688 -76.9375 45.332031 -73.460938 45.03125 -69.359375 C 44.632812 -64.554688 42.785156 -61.203125 39.484375 -59.296875 C 37.285156 -57.898438 35.007812 -57.578125 32.65625 -58.328125 C 30.300781 -59.078125 28.773438 -60.648438 28.078125 -63.046875 C 27.472656 -65.148438 28.097656 -66.648438 29.953125 -67.546875 C 31.804688 -68.453125 33.429688 -68.207031 34.828125 -66.8125 C 35.429688 -67.101562 35.78125 -67.351562 35.875 -67.5625 C 36.476562 -68.0625 36.878906 -68.859375 37.078125 -69.953125 C 37.484375 -71.953125 36.929688 -73.503906 35.421875 -74.609375 C 33.628906 -75.410156 31.878906 -75.507812 30.171875 -74.90625 C 28.472656 -74.3125 26.921875 -73.363281 25.515625 -72.0625 C 23.117188 -69.757812 21.617188 -66.054688 21.015625 -60.953125 C 21.015625 -60.347656 21.015625 -59.945312 21.015625 -59.75 C 21.316406 -56.550781 21.519531 -52.144531 21.625 -46.53125 C 21.820312 -44.632812 21.84375 -42.332031 21.6875 -39.625 C 21.539062 -36.925781 21.066406 -34.726562 20.265625 -33.03125 C 19.367188 -31.53125 18.117188 -30.828125 16.515625 -30.921875 C 14.910156 -31.023438 13.660156 -31.773438 12.765625 -33.171875 C 12.660156 -33.171875 12.609375 -33.125 12.609375 -33.03125 C 12.109375 -33.832031 11.679688 -34.832031 11.328125 -36.03125 C 10.984375 -37.226562 10.757812 -38.148438 10.65625 -38.796875 C 10.5625 -39.453125 10.460938 -40.65625 10.359375 -42.40625 C 10.253906 -44.15625 10.203125 -45.132812 10.203125 -45.34375 C 10.109375 -46.9375 9.910156 -49.207031 9.609375 -52.15625 C 9.304688 -55.113281 9.15625 -56.894531 9.15625 -57.5 C 8.457031 -65 7.507812 -72.851562 6.3125 -81.0625 C 6.101562 -82.863281 6.722656 -84.265625 8.171875 -85.265625 C 9.628906 -86.265625 11.054688 -86.066406 12.453125 -84.671875 C 14.753906 -82.367188 16.609375 -79.316406 18.015625 -75.515625 C 21.421875 -80.015625 25.675781 -82.613281 30.78125 -83.3125 Z M 34.984375 -66.8125 C 35.179688 -66.601562 35.328125 -66.398438 35.421875 -66.203125 C 35.222656 -66.398438 35.078125 -66.601562 34.984375 -66.8125 Z M 34.984375 -66.8125 "/></g></g></g><g fill="#38b6ff" fill-opacity="1"><g transform="translate(254.11998, 249.097284)"><g><path d="M 54.953125 -54.796875 C 56.148438 -56.097656 57.523438 -56.546875 59.078125 -56.140625 C 60.628906 -55.742188 61.726562 -54.867188 62.375 -53.515625 C 63.03125 -52.171875 63.003906 -50.695312 62.296875 -49.09375 C 59.097656 -43.488281 55.546875 -39.734375 51.640625 -37.828125 C 46.640625 -35.429688 41.1875 -35.179688 35.28125 -37.078125 C 29.070312 -39.078125 23.664062 -42.484375 19.0625 -47.296875 C 19.863281 -42.285156 20.46875 -38.582031 20.875 -36.1875 C 21.070312 -34.382812 20.796875 -32.726562 20.046875 -31.21875 C 19.296875 -29.71875 18.066406 -28.71875 16.359375 -28.21875 C 15.160156 -27.914062 14.007812 -27.941406 12.90625 -28.296875 C 11.8125 -28.648438 10.863281 -29.203125 10.0625 -29.953125 C 9.257812 -30.703125 8.707031 -31.628906 8.40625 -32.734375 C 4.5 -44.335938 2.25 -59.5 1.65625 -78.21875 C 1.351562 -85.125 1.453125 -91.828125 1.953125 -98.328125 C 2.554688 -105.535156 3.253906 -110.59375 4.046875 -113.5 C 4.546875 -115.300781 5.195312 -117.050781 6 -118.75 C 6.800781 -120.445312 7.828125 -122.097656 9.078125 -123.703125 C 10.328125 -125.304688 11.800781 -126.457031 13.5 -127.15625 C 15.207031 -127.851562 17.0625 -127.851562 19.0625 -127.15625 C 20.363281 -126.757812 21.585938 -125.910156 22.734375 -124.609375 C 23.890625 -123.304688 24.789062 -121.898438 25.4375 -120.390625 C 26.09375 -118.890625 26.570312 -117.390625 26.875 -115.890625 C 27.769531 -111.691406 27.421875 -106.335938 25.828125 -99.828125 C 24.023438 -92.023438 20.617188 -84.867188 15.609375 -78.359375 C 15.710938 -76.554688 15.8125 -74.753906 15.90625 -72.953125 C 16.914062 -73.753906 19.21875 -75.660156 22.8125 -78.671875 C 25.914062 -81.265625 28.421875 -83.265625 30.328125 -84.671875 C 30.628906 -84.867188 31.078125 -85.21875 31.671875 -85.71875 C 32.273438 -86.21875 32.75 -86.59375 33.09375 -86.84375 C 33.445312 -87.09375 33.898438 -87.394531 34.453125 -87.75 C 35.003906 -88.101562 35.53125 -88.378906 36.03125 -88.578125 C 36.53125 -88.773438 37.082031 -88.925781 37.6875 -89.03125 C 38.882812 -89.226562 39.984375 -88.898438 40.984375 -88.046875 C 41.984375 -87.191406 42.234375 -86.117188 41.734375 -84.828125 C 41.628906 -84.316406 41.425781 -83.8125 41.125 -83.3125 C 40.832031 -82.8125 40.457031 -82.285156 40 -81.734375 C 39.550781 -81.191406 39.203125 -80.796875 38.953125 -80.546875 C 38.703125 -80.296875 38.226562 -79.816406 37.53125 -79.109375 C 36.832031 -78.410156 36.429688 -78.015625 36.328125 -77.921875 C 35.429688 -77.015625 33.226562 -74.910156 29.71875 -71.609375 C 29.320312 -71.210938 28.472656 -70.363281 27.171875 -69.0625 C 25.867188 -67.757812 24.867188 -66.804688 24.171875 -66.203125 C 23.472656 -65.597656 22.546875 -64.820312 21.390625 -63.875 C 20.242188 -62.925781 19.171875 -62.101562 18.171875 -61.40625 C 23.367188 -55.300781 29.671875 -50.847656 37.078125 -48.046875 C 41.078125 -46.441406 44.484375 -46.335938 47.296875 -47.734375 C 47.691406 -47.941406 48.164062 -48.21875 48.71875 -48.5625 C 49.269531 -48.914062 49.742188 -49.265625 50.140625 -49.609375 C 50.546875 -49.960938 50.972656 -50.390625 51.421875 -50.890625 C 51.867188 -51.390625 52.265625 -51.8125 52.609375 -52.15625 C 52.960938 -52.507812 53.363281 -52.960938 53.8125 -53.515625 C 54.269531 -54.066406 54.648438 -54.492188 54.953125 -54.796875 Z M 18.015625 -117.84375 Z M 16.8125 -117.703125 L 16.515625 -117.84375 L 16.96875 -117.546875 C 16.863281 -117.546875 16.8125 -117.597656 16.8125 -117.703125 Z M 15.765625 -107.796875 C 15.660156 -105.890625 15.582031 -103.332031 15.53125 -100.125 C 15.488281 -96.925781 15.46875 -93.773438 15.46875 -90.671875 C 17.269531 -94.773438 18.566406 -98.976562 19.359375 -103.28125 C 20.460938 -109.59375 20.414062 -113.796875 19.21875 -115.890625 C 18.914062 -116.492188 18.414062 -116.945312 17.71875 -117.25 C 17.414062 -116.550781 17.0625 -115.550781 16.65625 -114.25 C 16.5625 -113.539062 16.3125 -112.1875 15.90625 -110.1875 C 15.90625 -109.988281 15.90625 -109.835938 15.90625 -109.734375 C 15.90625 -109.640625 15.90625 -109.539062 15.90625 -109.4375 C 15.8125 -108.9375 15.765625 -108.390625 15.765625 -107.796875 Z M 15.765625 -107.796875 "/></g></g></g><g fill="#38b6ff" fill-opacity="1"><g transform="translate(299.155263, 249.097284)"><g><path d="M 50.4375 -58.09375 C 52.144531 -58.59375 53.320312 -58.039062 53.96875 -56.4375 C 54.625 -54.84375 54.25 -53.546875 52.84375 -52.546875 C 52.039062 -52.046875 49.6875 -50.941406 45.78125 -49.234375 C 44.78125 -48.835938 43.429688 -48.210938 41.734375 -47.359375 C 40.035156 -46.515625 38.9375 -45.988281 38.4375 -45.78125 C 37.726562 -45.488281 36.546875 -44.960938 34.890625 -44.203125 C 33.242188 -43.453125 31.972656 -42.878906 31.078125 -42.484375 C 35.273438 -32.378906 35.472656 -24.375 31.671875 -18.46875 C 30.078125 -15.863281 27.953125 -13.9375 25.296875 -12.6875 C 22.640625 -11.4375 19.960938 -11.257812 17.265625 -12.15625 C 14.660156 -12.957031 12.484375 -14.507812 10.734375 -16.8125 C 8.984375 -19.113281 7.957031 -21.613281 7.65625 -24.3125 C 6.851562 -31.019531 9.707031 -37.226562 16.21875 -42.9375 C 16.21875 -42.9375 16.164062 -42.984375 16.0625 -43.078125 C 15.957031 -43.285156 15.90625 -43.4375 15.90625 -43.53125 C 14.3125 -46.632812 13.238281 -48.835938 12.6875 -50.140625 C 12.132812 -51.441406 11.40625 -53.367188 10.5 -55.921875 C 9.601562 -58.472656 9.003906 -60.800781 8.703125 -62.90625 C 7.503906 -70.613281 9.257812 -76.769531 13.96875 -81.375 C 15.96875 -83.375 18.664062 -84.519531 22.0625 -84.8125 C 25.46875 -85.113281 28.375 -84.515625 30.78125 -83.015625 C 32.976562 -81.710938 34.675781 -79.882812 35.875 -77.53125 C 37.082031 -75.1875 37.535156 -72.765625 37.234375 -70.265625 C 36.828125 -67.460938 35.5 -65.285156 33.25 -63.734375 C 31 -62.179688 28.570312 -62.15625 25.96875 -63.65625 C 24.46875 -64.75 24.039062 -66.125 24.6875 -67.78125 C 25.34375 -69.4375 26.625 -70.0625 28.53125 -69.65625 C 29.726562 -69.351562 30.273438 -69.90625 30.171875 -71.3125 C 29.972656 -73.207031 29.273438 -74.65625 28.078125 -75.65625 C 27.867188 -75.757812 27.71875 -75.8125 27.625 -75.8125 C 25.320312 -77.007812 23.570312 -76.109375 22.375 -73.109375 C 21.96875 -72.109375 21.738281 -70.984375 21.6875 -69.734375 C 21.644531 -68.484375 21.695312 -67.332031 21.84375 -66.28125 C 21.988281 -65.226562 22.285156 -63.972656 22.734375 -62.515625 C 23.191406 -61.066406 23.566406 -59.941406 23.859375 -59.140625 C 24.160156 -58.347656 24.613281 -57.25 25.21875 -55.84375 C 25.414062 -55.445312 25.515625 -55.148438 25.515625 -54.953125 C 26.015625 -53.742188 26.765625 -52.085938 27.765625 -49.984375 C 30.867188 -51.492188 34.273438 -52.847656 37.984375 -54.046875 C 46.085938 -56.742188 50.238281 -58.09375 50.4375 -58.09375 Z M 22.671875 -26.265625 C 22.867188 -27.867188 22.066406 -30.570312 20.265625 -34.375 C 20.265625 -34.476562 20.238281 -34.578125 20.1875 -34.671875 C 20.132812 -34.773438 20.109375 -34.878906 20.109375 -34.984375 C 17.210938 -31.679688 16.113281 -28.578125 16.8125 -25.671875 C 17.3125 -23.566406 18.335938 -22.640625 19.890625 -22.890625 C 21.441406 -23.140625 22.367188 -24.265625 22.671875 -26.265625 Z M 22.671875 -26.265625 "/></g></g></g><g clip-path="url(#5ebf9411d2)"><path fill="#38b6ff" d="M 238.882812 94.644531 C 237.792969 93.875 236.535156 93.78125 235.285156 94.160156 C 234.390625 94.433594 233.660156 95.019531 232.867188 95.492188 C 230.65625 96.816406 228.960938 96.757812 226.5625 96.097656 C 224.59375 95.5625 220.945312 94.472656 219.507812 96.363281 C 218.90625 95.867188 218.28125 95.484375 217.636719 95.28125 C 215.769531 94.695312 213.8125 96.335938 212.664062 97.710938 C 212.539062 97.859375 212.527344 98.027344 212.578125 98.171875 C 212.085938 98.605469 211.710938 99.117188 211.597656 99.804688 C 211.535156 99.789062 211.472656 99.769531 211.40625 99.753906 C 210.402344 99.402344 209.398438 99.445312 208.417969 99.734375 C 208.074219 99.800781 207.714844 99.894531 207.339844 100.011719 C 207.195312 100.058594 207.128906 100.148438 207.109375 100.253906 C 205.316406 101.132812 203.628906 102.589844 202.152344 103.554688 C 197.40625 106.660156 192.484375 109.492188 187.785156 112.675781 C 184.121094 115.160156 178.105469 118.398438 177.25 123.171875 C 176.554688 127.0625 178.949219 131.773438 181.011719 134.917969 C 183.136719 138.148438 186.921875 142.222656 190.878906 143.023438 C 191.042969 143.054688 191.207031 143.078125 191.367188 143.101562 C 191.371094 143.113281 191.371094 143.125 191.371094 143.136719 C 191.40625 143.355469 191.671875 143.335938 191.757812 143.175781 C 191.765625 143.164062 191.769531 143.152344 191.773438 143.140625 C 194.128906 143.308594 196.515625 142.339844 198.730469 141.128906 C 198.859375 141.101562 198.988281 141.070312 199.125 141.039062 C 199.238281 141.011719 199.296875 140.910156 199.300781 140.8125 C 200.570312 140.085938 201.773438 139.3125 202.871094 138.660156 C 207.628906 135.84375 212.191406 132.695312 216.625 129.394531 C 220.039062 126.851562 224.3125 123.566406 225.351562 119.171875 C 225.445312 118.78125 225.488281 118.398438 225.496094 118.015625 C 227.039062 118.902344 228.253906 117.988281 229.761719 116.589844 C 231.105469 115.335938 232.132812 114.5 231.351562 112.742188 C 231.167969 112.320312 230.933594 111.902344 230.671875 111.488281 C 231.855469 111.121094 232.625 110.371094 233.089844 109.03125 C 233.488281 107.871094 232.691406 106.71875 233.140625 105.4375 C 233.828125 103.476562 235.796875 102.9375 237.308594 101.921875 C 239.761719 100.273438 242.148438 96.945312 238.882812 94.644531 Z M 219.917969 99.503906 C 220.027344 99.628906 220.136719 99.753906 220.246094 99.882812 C 218.863281 100.867188 217.457031 102.230469 216.480469 103.714844 C 216.019531 103.101562 215.542969 102.523438 215.039062 102.003906 C 215.054688 101.992188 215.066406 101.988281 215.082031 101.972656 C 216.226562 100.699219 217.53125 99.519531 218.652344 98.222656 C 219.121094 98.617188 219.539062 99.078125 219.917969 99.503906 Z M 224.476562 110.515625 C 223.949219 111 223.421875 111.480469 222.902344 111.976562 C 222.324219 111.230469 221.699219 110.503906 221.089844 109.800781 C 221.578125 109.28125 222.039062 108.730469 222.511719 108.195312 C 223.207031 107.410156 224.011719 106.617188 224.546875 105.695312 C 225.160156 106.480469 225.9375 107.476562 226.683594 108.539062 C 225.886719 109.105469 225.1875 109.859375 224.476562 110.515625 Z M 226.960938 108.941406 C 227.492188 109.714844 227.992188 110.515625 228.386719 111.28125 C 227.699219 111.894531 227.003906 112.503906 226.289062 113.089844 C 225.71875 113.554688 225.105469 113.972656 224.542969 114.453125 C 224.191406 113.785156 223.765625 113.136719 223.300781 112.5 C 223.917969 111.992188 224.503906 111.449219 225.089844 110.890625 C 225.722656 110.289062 226.433594 109.65625 226.960938 108.941406 Z M 222.277344 107.359375 C 221.714844 107.972656 221.125 108.578125 220.578125 109.210938 C 219.886719 108.410156 219.234375 107.640625 218.722656 106.902344 C 220.097656 105.714844 221.558594 104.578125 222.808594 103.28125 C 223.085938 103.683594 223.363281 104.085938 223.636719 104.488281 C 223.789062 104.710938 224.019531 105.011719 224.292969 105.367188 C 223.53125 105.917969 222.90625 106.671875 222.277344 107.359375 Z M 218.363281 106.382812 C 217.875 105.675781 217.394531 104.96875 216.910156 104.292969 C 217.304688 103.734375 217.695312 103.167969 218.132812 102.636719 C 218.859375 101.753906 219.679688 100.96875 220.492188 100.171875 C 221.195312 101.019531 221.84375 101.90625 222.476562 102.804688 C 220.902344 103.652344 219.539062 104.992188 218.363281 106.382812 Z M 215.007812 97.582031 C 215.253906 97.453125 215.492188 97.347656 215.703125 97.296875 C 216.65625 97.074219 217.488281 97.378906 218.210938 97.886719 C 216.832031 98.886719 215.679688 100.347656 214.777344 101.742188 C 214.300781 101.277344 213.796875 100.871094 213.253906 100.535156 C 213.273438 99.292969 214.121094 98.53125 215.007812 97.582031 Z M 223.136719 121.105469 C 220.984375 118.816406 218.851562 116.609375 217.253906 113.855469 C 217.195312 113.757812 217.011719 113.789062 217.042969 113.921875 C 217.75 116.945312 220.433594 119.601562 222.726562 121.746094 C 221.773438 123.136719 220.511719 124.394531 219.554688 125.308594 C 216.015625 128.679688 211.769531 131.496094 207.714844 134.203125 C 205.144531 135.914062 202.523438 137.546875 199.828125 139.054688 C 198.953125 139.542969 198.046875 140.082031 197.105469 140.5625 C 195.457031 140.507812 194.058594 140.296875 192.339844 139.160156 C 190.699219 138.074219 189.421875 136.664062 187.902344 135.449219 C 187.78125 135.351562 187.5625 135.476562 187.605469 135.636719 C 188.1875 137.878906 190.507812 139.320312 192.339844 140.515625 C 193.238281 141.097656 194.042969 141.402344 194.847656 141.523438 C 194.171875 141.742188 193.480469 141.890625 192.777344 141.929688 C 192.550781 141.941406 192.328125 141.9375 192.101562 141.925781 C 192.128906 141.632812 192.132812 141.335938 192.117188 141.039062 C 192.105469 140.820312 191.785156 140.824219 191.714844 141.003906 C 191.601562 141.28125 191.507812 141.566406 191.441406 141.859375 C 190.84375 141.773438 190.253906 141.609375 189.675781 141.382812 C 189.691406 141.277344 189.707031 141.167969 189.722656 141.050781 C 189.769531 140.683594 189.867188 140.292969 189.691406 139.949219 C 189.648438 139.867188 189.535156 139.828125 189.460938 139.894531 C 189.167969 140.152344 189.121094 140.53125 189.027344 140.894531 C 189.011719 140.957031 188.996094 141.019531 188.980469 141.082031 C 188.425781 140.8125 187.878906 140.488281 187.347656 140.121094 C 187.480469 139.679688 187.628906 139.238281 187.808594 138.816406 C 187.882812 138.636719 187.605469 138.535156 187.527344 138.710938 C 187.332031 139.128906 187.195312 139.53125 187.117188 139.960938 C 186.679688 139.648438 186.257812 139.308594 185.839844 138.945312 C 185.949219 138.515625 186.027344 138.078125 186.132812 137.648438 C 186.1875 137.433594 185.878906 137.203125 185.75 137.441406 C 185.5625 137.777344 185.421875 138.140625 185.363281 138.519531 C 184.964844 138.144531 184.574219 137.753906 184.199219 137.351562 C 184.265625 137.179688 184.320312 137 184.351562 136.816406 C 184.402344 136.53125 184.496094 136.207031 184.4375 135.921875 C 184.402344 135.769531 184.207031 135.71875 184.113281 135.847656 C 183.929688 136.09375 183.867188 136.460938 183.792969 136.757812 C 183.78125 136.800781 183.777344 136.839844 183.769531 136.882812 C 183.371094 136.433594 182.988281 135.972656 182.625 135.511719 C 182.765625 135.023438 182.875 134.527344 183.046875 134.050781 C 183.117188 133.851562 182.835938 133.753906 182.746094 133.9375 C 182.554688 134.324219 182.398438 134.707031 182.316406 135.113281 C 181.859375 134.511719 181.433594 133.90625 181.046875 133.320312 C 181.203125 132.929688 181.300781 132.511719 181.417969 132.105469 C 181.457031 131.96875 181.269531 131.894531 181.214844 132.027344 C 181.082031 132.339844 180.933594 132.648438 180.8125 132.964844 C 180.5 132.476562 180.214844 132.003906 179.960938 131.554688 C 179.882812 131.421875 179.808594 131.289062 179.738281 131.15625 C 179.863281 130.621094 179.972656 130.089844 180.0625 129.542969 C 180.082031 129.402344 179.84375 129.34375 179.808594 129.484375 C 179.707031 129.921875 179.617188 130.351562 179.542969 130.789062 C 179.257812 130.242188 178.996094 129.679688 178.777344 129.109375 C 179.085938 128.316406 179.5 127.492188 179.621094 126.667969 C 179.636719 126.558594 179.5 126.535156 179.4375 126.601562 C 178.980469 127.089844 178.71875 127.789062 178.550781 128.480469 C 178.371094 127.933594 178.234375 127.386719 178.152344 126.832031 C 178.183594 126.828125 178.210938 126.808594 178.226562 126.765625 C 178.605469 125.734375 179.191406 124.742188 179.492188 123.691406 C 179.527344 123.574219 179.378906 123.492188 179.300781 123.589844 C 178.660156 124.359375 178.339844 125.417969 178.097656 126.390625 C 177.945312 124.804688 178.273438 123.21875 179.402344 121.742188 C 179.617188 121.457031 179.855469 121.179688 180.101562 120.910156 C 179.550781 122.589844 180.164062 124.289062 180.714844 126.007812 C 181.4375 128.273438 182.304688 130.792969 184.21875 132.332031 C 184.410156 132.488281 184.746094 132.238281 184.609375 132.011719 C 183.632812 130.4375 182.667969 128.957031 181.96875 127.230469 C 181.144531 125.195312 179.835938 122.535156 180.632812 120.359375 C 182.160156 118.851562 184.058594 117.550781 185.703125 116.34375 C 189.902344 113.25 194.390625 110.585938 198.816406 107.832031 C 200.648438 106.691406 202.472656 105.53125 204.257812 104.320312 C 205.753906 103.304688 207.226562 102.101562 208.894531 101.429688 C 209.21875 102.890625 210.035156 104.339844 210.691406 105.667969 C 211.386719 107.070312 212.125 108.570312 213.125 109.785156 C 213.269531 109.960938 213.546875 109.78125 213.460938 109.574219 C 212.835938 108.058594 211.929688 106.628906 211.1875 105.167969 C 210.546875 103.898438 210.058594 102.480469 209.300781 101.277344 C 209.410156 101.238281 209.519531 101.203125 209.628906 101.171875 C 210.304688 101.296875 210.972656 101.457031 211.628906 101.746094 C 211.726562 101.789062 211.824219 101.835938 211.917969 101.878906 C 212.851562 104.242188 215.382812 106.851562 216.632812 108.335938 C 218.875 110.992188 221.105469 113.785156 223.546875 116.28125 C 223.902344 116.9375 224.121094 117.574219 224.113281 118.15625 C 224.09375 119.140625 223.707031 120.144531 223.136719 121.105469 Z M 228.265625 115.554688 C 227.234375 116.050781 226.257812 115.800781 225.359375 115.21875 C 226.667969 114.449219 227.820312 113.160156 228.6875 111.910156 C 229.410156 113.539062 229.53125 114.945312 228.265625 115.554688 Z M 235.777344 101.390625 C 234.855469 101.945312 233.867188 102.4375 233.117188 103.234375 C 232.515625 103.875 232.171875 104.605469 231.925781 105.367188 C 231.863281 105.085938 231.800781 104.808594 231.78125 104.519531 C 231.765625 104.335938 231.476562 104.355469 231.464844 104.53125 C 231.421875 105.050781 231.464844 105.519531 231.761719 105.957031 C 231.628906 106.464844 231.527344 106.988281 231.414062 107.503906 C 231.339844 107.328125 231.265625 107.152344 231.203125 106.972656 C 231.097656 106.675781 231.058594 106.136719 230.742188 105.984375 C 230.683594 105.957031 230.613281 105.992188 230.574219 106.035156 C 230.519531 106.097656 230.515625 106.144531 230.535156 106.21875 C 230.546875 106.273438 230.59375 106.332031 230.652344 106.332031 C 230.695312 106.464844 230.710938 106.6875 230.738281 106.777344 C 230.800781 106.976562 230.867188 107.175781 230.945312 107.371094 C 231.039062 107.613281 231.148438 107.855469 231.277344 108.082031 C 231.171875 108.496094 231.046875 108.902344 230.886719 109.296875 C 230.769531 109.015625 230.648438 108.734375 230.527344 108.453125 C 230.320312 107.988281 230.203125 107.429688 229.921875 107.007812 C 229.863281 106.921875 229.710938 106.972656 229.707031 107.074219 C 229.679688 107.585938 229.933594 108.167969 230.105469 108.648438 C 230.25 109.046875 230.441406 109.417969 230.664062 109.773438 C 230.566406 109.960938 230.460938 110.144531 230.335938 110.324219 C 229.679688 109 228.960938 107.710938 228.253906 106.414062 C 228.179688 106.28125 227.960938 106.378906 228.035156 106.515625 C 228.75 107.839844 229.457031 109.171875 230.230469 110.46875 C 230.1875 110.523438 230.144531 110.582031 230.101562 110.636719 C 229.339844 109.574219 228.472656 108.535156 227.796875 107.546875 C 226.636719 105.851562 225.492188 104.144531 224.316406 102.457031 C 223.300781 101 221.875 98.65625 220.21875 97.011719 C 223.007812 95.371094 226.050781 97.625 229.039062 97.839844 C 231.601562 98.019531 232.660156 96.261719 234.832031 95.609375 C 234.832031 95.679688 234.890625 95.753906 234.96875 95.730469 C 235.1875 95.675781 235.394531 95.613281 235.601562 95.570312 C 235.96875 95.578125 236.332031 95.582031 236.699219 95.589844 C 237.324219 95.777344 237.902344 96.25 238.265625 96.785156 C 238.335938 96.894531 238.386719 97 238.425781 97.105469 C 238.445312 97.25 238.46875 97.398438 238.492188 97.542969 C 238.488281 97.941406 238.328125 98.339844 238.179688 98.738281 C 237.992188 99.246094 237.828125 99.75 237.691406 100.269531 C 237.027344 100.730469 236.222656 101.121094 235.777344 101.390625 Z M 235.777344 101.390625 " fill-opacity="1" fill-rule="nonzero"/></g><path fill="#38b6ff" d="M 255.191406 108.261719 C 255.371094 105.917969 253.632812 103.164062 251.527344 101.617188 C 251.515625 101.59375 251.503906 101.570312 251.480469 101.546875 C 250.371094 100.28125 246.820312 98.6875 247.46875 101.847656 C 247.613281 102.546875 248.039062 103.21875 248.25 103.90625 C 248.582031 104.980469 248.742188 106.082031 248.925781 107.183594 C 249.183594 108.707031 249.414062 110.839844 250.523438 112.027344 C 252.742188 114.402344 255.042969 110.183594 255.191406 108.261719 Z M 253.394531 110.097656 C 252.863281 111.097656 252.980469 111.140625 251.757812 110.957031 C 250.429688 110.753906 250.539062 110.496094 250.199219 109.160156 C 249.789062 107.558594 249.6875 105.890625 249.277344 104.289062 C 249.109375 103.621094 248.617188 102.875 248.550781 102.226562 C 248.355469 101.953125 248.425781 101.683594 248.757812 101.417969 C 248.847656 100.75 249.113281 100.636719 249.554688 101.074219 C 249.609375 101.089844 249.675781 101.121094 249.734375 101.144531 C 251.304688 102.421875 252.933594 104.179688 253.71875 105.996094 C 254.335938 107.417969 254.109375 108.757812 253.394531 110.097656 Z M 253.394531 110.097656 " fill-opacity="1" fill-rule="nonzero"/><path fill="#38b6ff" d="M 250.792969 97.539062 C 251.792969 97.953125 252.675781 98.621094 253.703125 98.980469 C 255.375 99.566406 257.886719 99.492188 258.425781 97.375 C 258.996094 95.128906 256.199219 94.210938 254.523438 93.8125 C 252.621094 93.359375 250.542969 93.371094 248.625 93.886719 C 248.566406 93.847656 248.492188 93.820312 248.40625 93.828125 C 247.199219 93.894531 245.921875 94.34375 245.230469 95.390625 C 245.128906 95.542969 245.078125 95.777344 245.179688 95.945312 C 245.679688 96.773438 246.429688 96.714844 247.363281 96.824219 C 248.542969 96.960938 249.679688 97.082031 250.792969 97.539062 Z M 249.589844 96.027344 C 249.128906 95.910156 248.300781 95.960938 247.859375 95.75 C 247.003906 95.925781 246.820312 95.695312 247.304688 95.058594 C 247.730469 94.84375 248.160156 94.636719 248.59375 94.433594 C 248.609375 94.425781 248.617188 94.414062 248.632812 94.40625 C 249.796875 94.132812 250.972656 93.996094 252.265625 94.097656 C 253.1875 94.171875 254.101562 94.332031 254.984375 94.621094 C 255.640625 94.828125 256.265625 95.101562 256.867188 95.4375 C 256.785156 97.984375 256.035156 98.949219 254.613281 98.328125 C 252.941406 98.222656 251.292969 96.457031 249.589844 96.027344 Z M 249.589844 96.027344 " fill-opacity="1" fill-rule="nonzero"/><path fill="#38b6ff" d="M 248.824219 89.554688 C 249.585938 88.945312 251.386719 86.761719 250.6875 85.710938 C 249.957031 84.621094 248.089844 85.59375 247.300781 86.066406 C 245.695312 87.015625 244.316406 88.253906 243.132812 89.675781 C 242.957031 89.722656 242.777344 89.773438 242.601562 89.832031 C 242.324219 89.925781 242.339844 90.28125 242.511719 90.457031 C 242.429688 90.570312 242.34375 90.683594 242.257812 90.796875 C 242.167969 90.921875 242.359375 91.058594 242.453125 90.9375 C 242.558594 90.808594 242.671875 90.683594 242.777344 90.554688 C 242.792969 90.554688 242.808594 90.558594 242.828125 90.554688 C 244.234375 90.175781 245.527344 90.265625 246.957031 90.207031 C 247.683594 90.175781 248.25 90.011719 248.824219 89.554688 Z M 247.714844 89.273438 C 246.867188 89.542969 246.21875 89.375 245.355469 89.363281 C 244.785156 89.359375 244.234375 89.425781 243.6875 89.542969 C 244.277344 88.933594 244.898438 88.359375 245.566406 87.832031 C 246.195312 87.339844 246.859375 86.875 247.558594 86.480469 C 248.394531 86.011719 250.53125 85.378906 249.816406 87.269531 C 249.460938 88.199219 248.621094 88.984375 247.714844 89.273438 Z M 247.714844 89.273438 " fill-opacity="1" fill-rule="nonzero"/><path fill="#38b6ff" d="M 216.179688 127.726562 C 216.917969 125.539062 217.46875 123.328125 217.796875 121.046875 C 217.800781 121.019531 217.765625 121.015625 217.757812 121.042969 C 217.273438 123.277344 216.730469 125.496094 216.089844 127.691406 C 216.070312 127.753906 216.160156 127.789062 216.179688 127.726562 Z M 216.179688 127.726562 " fill-opacity="1" fill-rule="nonzero"/><path fill="#38b6ff" d="M 213.421875 129.316406 C 213.949219 126.941406 214.339844 124.554688 214.605469 122.136719 C 214.625 121.957031 214.355469 121.9375 214.324219 122.113281 C 213.917969 124.503906 213.523438 126.894531 213.144531 129.289062 C 213.113281 129.472656 213.386719 129.488281 213.421875 129.316406 Z M 213.421875 129.316406 " fill-opacity="1" fill-rule="nonzero"/><path fill="#38b6ff" d="M 210.535156 124.160156 C 209.910156 127.152344 209.257812 130.140625 208.769531 133.160156 C 208.746094 133.292969 208.96875 133.347656 209 133.214844 C 209.699219 130.226562 210.234375 127.203125 210.796875 124.183594 C 210.828125 124.019531 210.570312 124 210.535156 124.160156 Z M 210.535156 124.160156 " fill-opacity="1" fill-rule="nonzero"/><path fill="#38b6ff" d="M 205.914062 124.699219 C 205.765625 127.460938 205.515625 130.214844 205.335938 132.976562 C 205.320312 133.195312 205.636719 133.21875 205.671875 133.003906 C 206.160156 130.269531 206.355469 127.519531 206.433594 124.746094 C 206.445312 124.414062 205.933594 124.363281 205.914062 124.699219 Z M 205.914062 124.699219 " fill-opacity="1" fill-rule="nonzero"/><path fill="#38b6ff" d="M 201.074219 125.261719 C 201.089844 125.042969 200.753906 125.011719 200.734375 125.230469 C 200.542969 127.652344 200.324219 130.070312 200.207031 132.496094 C 200.199219 132.660156 200.449219 132.6875 200.46875 132.519531 C 200.730469 130.105469 200.890625 127.683594 201.074219 125.261719 Z M 201.074219 125.261719 " fill-opacity="1" fill-rule="nonzero"/><path fill="#38b6ff" d="M 197.695312 129.980469 C 197.765625 129.757812 197.425781 129.632812 197.355469 129.851562 C 196.671875 132.101562 196.359375 134.386719 196.488281 136.734375 C 196.496094 136.859375 196.707031 136.851562 196.707031 136.726562 C 196.699219 134.421875 196.996094 132.183594 197.695312 129.980469 Z M 197.695312 129.980469 " fill-opacity="1" fill-rule="nonzero"/></svg>