<svg xmlns="http://www.w3.org/2000/svg" xmlns:xlink="http://www.w3.org/1999/xlink" width="500" zoomAndPan="magnify" viewBox="0 0 375 374.999991" height="500" preserveAspectRatio="xMidYMid meet" version="1.0"><defs><g/><clipPath id="c72f6be1ce"><path d="M 182.683594 148 L 210 148 L 210 169.46875 L 182.683594 169.46875 Z M 182.683594 148 " clip-rule="nonzero"/></clipPath><clipPath id="c4e6d5cf01"><path d="M 209 144.71875 L 214 144.71875 L 214 148 L 209 148 Z M 209 144.71875 " clip-rule="nonzero"/></clipPath></defs><g fill="#38b6ff" fill-opacity="1"><g transform="translate(124.861842, 213.114582)"><g><path d="M 24.53125 -33.953125 C 23.320312 -34.242188 22.34375 -34.867188 21.59375 -35.828125 C 20.84375 -36.785156 20.507812 -37.867188 20.59375 -39.078125 C 20.632812 -39.617188 20.882812 -40.046875 21.34375 -40.359375 C 21.800781 -40.671875 22.28125 -40.753906 22.78125 -40.609375 C 23.28125 -40.460938 23.613281 -40.097656 23.78125 -39.515625 C 23.988281 -38.640625 24.4375 -38.117188 25.125 -37.953125 C 25.8125 -37.785156 26.5 -37.910156 27.1875 -38.328125 C 27.875 -38.742188 28.382812 -39.265625 28.71875 -39.890625 C 29.382812 -41.015625 29.664062 -42.226562 29.5625 -43.53125 C 29.457031 -44.84375 28.945312 -45.976562 28.03125 -46.9375 C 26.445312 -48.4375 24.21875 -49.164062 21.34375 -49.125 C 19.269531 -49.082031 17.171875 -48.4375 15.046875 -47.1875 C 13.253906 -46.144531 11.921875 -44.628906 11.046875 -42.640625 C 10.335938 -40.972656 10.066406 -39.285156 10.234375 -37.578125 C 10.648438 -34.078125 13.003906 -30.582031 17.296875 -27.09375 C 18.085938 -26.507812 19.757812 -25.375 22.3125 -23.6875 C 24.875 -22 26.738281 -20.550781 27.90625 -19.34375 C 29.65625 -17.5625 30.890625 -15.503906 31.609375 -13.171875 C 32.335938 -10.835938 32.453125 -8.46875 31.953125 -6.0625 C 31.453125 -3.726562 30.378906 -1.65625 28.734375 0.15625 C 27.097656 1.96875 25.25 3.289062 23.1875 4.125 C 21.125 4.957031 18.914062 5.1875 16.5625 4.8125 C 14.21875 4.4375 12.148438 3.375 10.359375 1.625 C 8.609375 -0.0820312 7.585938 -2.140625 7.296875 -4.546875 C 7.003906 -6.960938 7.671875 -9.128906 9.296875 -11.046875 C 10.753906 -12.585938 12.546875 -13.453125 14.671875 -13.640625 C 16.796875 -13.828125 18.625 -13.171875 20.15625 -11.671875 C 20.65625 -11.171875 20.882812 -10.609375 20.84375 -9.984375 C 20.800781 -9.359375 20.5625 -8.859375 20.125 -8.484375 C 19.6875 -8.109375 19.175781 -7.867188 18.59375 -7.765625 C 18.019531 -7.660156 17.460938 -7.878906 16.921875 -8.421875 C 16.378906 -8.878906 15.753906 -9.066406 15.046875 -8.984375 C 14.335938 -8.898438 13.710938 -8.609375 13.171875 -8.109375 C 12.546875 -7.441406 12.265625 -6.691406 12.328125 -5.859375 C 12.390625 -5.035156 12.691406 -4.25 13.234375 -3.5 C 14.398438 -1.875 16.171875 -1.082031 18.546875 -1.125 C 20.203125 -1.125 21.757812 -1.875 23.21875 -3.375 C 24.425781 -4.625 25.175781 -6.097656 25.46875 -7.796875 C 25.507812 -7.960938 25.53125 -8.148438 25.53125 -8.359375 C 25.53125 -8.648438 25.53125 -8.898438 25.53125 -9.109375 C 25.53125 -9.484375 25.488281 -9.816406 25.40625 -10.109375 C 25.238281 -10.898438 24.90625 -11.691406 24.40625 -12.484375 C 24.238281 -12.773438 24.007812 -13.066406 23.71875 -13.359375 C 23.46875 -13.648438 23.132812 -14.003906 22.71875 -14.421875 C 22.050781 -15.046875 21.40625 -15.585938 20.78125 -16.046875 C 20.28125 -16.421875 19.707031 -16.816406 19.0625 -17.234375 C 18.425781 -17.648438 17.773438 -18.070312 17.109375 -18.5 C 16.441406 -18.9375 15.859375 -19.320312 15.359375 -19.65625 C 10.191406 -23.320312 6.71875 -27.050781 4.9375 -30.84375 C 3.726562 -33.332031 3.125 -35.898438 3.125 -38.546875 C 3.125 -41.191406 3.707031 -43.757812 4.875 -46.25 C 6.03125 -48.707031 7.722656 -50.726562 9.953125 -52.3125 C 12.179688 -53.894531 14.648438 -54.851562 17.359375 -55.1875 C 19.890625 -55.476562 22.28125 -55.164062 24.53125 -54.25 C 26.820312 -53.332031 28.78125 -51.769531 30.40625 -49.5625 C 31.394531 -48.269531 32.117188 -46.851562 32.578125 -45.3125 C 33.035156 -43.78125 33.148438 -42.191406 32.921875 -40.546875 C 32.691406 -38.898438 32.0625 -37.472656 31.03125 -36.265625 C 30.488281 -35.679688 29.863281 -35.179688 29.15625 -34.765625 C 28.445312 -34.347656 27.695312 -34.066406 26.90625 -33.921875 C 26.113281 -33.773438 25.320312 -33.785156 24.53125 -33.953125 Z M 24.53125 -33.953125 "/></g></g></g><g fill="#38b6ff" fill-opacity="1"><g transform="translate(158.3216, 213.114582)"><g><path d="M 20.28125 -9.109375 C 21.363281 -8.316406 21.945312 -7.328125 22.03125 -6.140625 C 22.113281 -4.960938 21.820312 -3.863281 21.15625 -2.84375 C 20.488281 -1.820312 19.601562 -0.914062 18.5 -0.125 C 17.40625 0.664062 16.335938 1.125 15.296875 1.25 C 12.878906 1.5 10.796875 0.78125 9.046875 -0.90625 C 7.296875 -2.59375 6.03125 -4.679688 5.25 -7.171875 C 4 -10.960938 3.375 -16.351562 3.375 -23.34375 C 3.375 -29.414062 3.6875 -35.429688 4.3125 -41.390625 C 2.226562 -41.429688 0.8125 -41.453125 0.0625 -41.453125 C -0.476562 -41.492188 -0.863281 -41.734375 -1.09375 -42.171875 C -1.320312 -42.609375 -1.320312 -43.050781 -1.09375 -43.5 C -0.863281 -43.957031 -0.476562 -44.1875 0.0625 -44.1875 C 1.644531 -44.269531 3.1875 -44.332031 4.6875 -44.375 C 5.144531 -48.332031 5.742188 -52.25 6.484375 -56.125 C 6.648438 -56.945312 7.117188 -57.460938 7.890625 -57.671875 C 8.660156 -57.878906 9.378906 -57.773438 10.046875 -57.359375 C 10.710938 -56.941406 11.023438 -56.320312 10.984375 -55.5 C 10.898438 -53.914062 10.753906 -50.25 10.546875 -44.5 C 12.921875 -44.539062 14.753906 -44.4375 16.046875 -44.1875 C 16.628906 -44.0625 16.921875 -43.65625 16.921875 -42.96875 C 16.921875 -42.289062 16.628906 -41.890625 16.046875 -41.765625 C 14.628906 -41.390625 12.753906 -41.222656 10.421875 -41.265625 C 10.335938 -39.847656 10.273438 -38.867188 10.234375 -38.328125 C 9.941406 -31.710938 9.796875 -26.195312 9.796875 -21.78125 C 9.835938 -18.625 10.003906 -15.941406 10.296875 -13.734375 C 10.710938 -10.734375 11.234375 -8.503906 11.859375 -7.046875 C 12.234375 -6.222656 12.753906 -5.5 13.421875 -4.875 C 14.085938 -4.25 14.835938 -4.039062 15.671875 -4.25 C 16.046875 -4.332031 16.503906 -4.625 17.046875 -5.125 C 17.585938 -5.625 17.734375 -6.035156 17.484375 -6.359375 C 17.148438 -6.859375 17.109375 -7.421875 17.359375 -8.046875 C 17.609375 -8.671875 18.007812 -9.085938 18.5625 -9.296875 C 19.125 -9.503906 19.695312 -9.441406 20.28125 -9.109375 Z M 20.28125 -9.109375 "/></g></g></g><g fill="#38b6ff" fill-opacity="1"><g transform="translate(174.177536, 213.114582)"><g><path d="M 25.65625 -30.90625 C 26.320312 -31.4375 26.945312 -31.421875 27.53125 -30.859375 C 28.113281 -30.304688 28.132812 -29.695312 27.59375 -29.03125 C 26.257812 -27.488281 24.15625 -26.300781 21.28125 -25.46875 C 20.988281 -22.59375 19.890625 -20.097656 17.984375 -17.984375 C 16.859375 -16.734375 15.460938 -15.867188 13.796875 -15.390625 C 12.128906 -14.910156 10.503906 -14.796875 8.921875 -15.046875 C 7.335938 -15.296875 5.867188 -15.953125 4.515625 -17.015625 C 3.171875 -18.078125 2.25 -19.4375 1.75 -21.09375 C 1.125 -23.050781 1.257812 -25.207031 2.15625 -27.5625 C 3.050781 -29.914062 4.410156 -31.816406 6.234375 -33.265625 C 6.941406 -34.515625 8.066406 -35.378906 9.609375 -35.859375 C 11.148438 -36.335938 12.671875 -36.410156 14.171875 -36.078125 C 15.960938 -35.703125 17.476562 -34.835938 18.71875 -33.484375 C 19.96875 -32.128906 20.757812 -30.539062 21.09375 -28.71875 C 21.09375 -28.71875 21.113281 -28.695312 21.15625 -28.65625 C 22.945312 -29.195312 24.445312 -29.945312 25.65625 -30.90625 Z M 12.109375 -31.765625 C 10.984375 -31.890625 10.253906 -31.644531 9.921875 -31.03125 C 9.796875 -30.738281 9.921875 -30.40625 10.296875 -30.03125 C 10.921875 -29.320312 12.234375 -28.71875 14.234375 -28.21875 C 14.773438 -28.09375 15.378906 -28.03125 16.046875 -28.03125 C 15.628906 -30.351562 14.316406 -31.597656 12.109375 -31.765625 Z M 10.234375 -19.90625 C 12.023438 -19.65625 13.523438 -20.363281 14.734375 -22.03125 C 15.191406 -22.65625 15.546875 -23.40625 15.796875 -24.28125 C 13.503906 -24.03125 11.359375 -24.40625 9.359375 -25.40625 C 8.441406 -25.863281 7.671875 -26.46875 7.046875 -27.21875 C 6.671875 -26.21875 6.441406 -25.363281 6.359375 -24.65625 C 6.316406 -24.113281 6.316406 -23.65625 6.359375 -23.28125 C 6.359375 -22.988281 6.398438 -22.757812 6.484375 -22.59375 C 6.609375 -22.300781 6.773438 -22.03125 6.984375 -21.78125 C 7.191406 -21.53125 7.410156 -21.300781 7.640625 -21.09375 C 7.867188 -20.882812 8.128906 -20.695312 8.421875 -20.53125 C 8.710938 -20.363281 9.003906 -20.226562 9.296875 -20.125 C 9.585938 -20.019531 9.898438 -19.945312 10.234375 -19.90625 Z M 10.234375 -19.90625 "/></g></g></g><g fill="#38b6ff" fill-opacity="1"><g transform="translate(196.213524, 213.114582)"><g><path d="M 12.796875 -34.640625 C 14.503906 -34.847656 15.945312 -34.359375 17.125 -33.171875 C 18.3125 -31.984375 18.84375 -30.539062 18.71875 -28.84375 C 18.5625 -26.84375 17.796875 -25.445312 16.421875 -24.65625 C 15.503906 -24.070312 14.554688 -23.9375 13.578125 -24.25 C 12.597656 -24.5625 11.960938 -25.21875 11.671875 -26.21875 C 11.421875 -27.09375 11.679688 -27.71875 12.453125 -28.09375 C 13.222656 -28.46875 13.898438 -28.363281 14.484375 -27.78125 C 14.734375 -27.90625 14.878906 -28.007812 14.921875 -28.09375 C 15.171875 -28.300781 15.335938 -28.632812 15.421875 -29.09375 C 15.585938 -29.925781 15.359375 -30.570312 14.734375 -31.03125 C 13.984375 -31.351562 13.253906 -31.390625 12.546875 -31.140625 C 11.835938 -30.898438 11.191406 -30.507812 10.609375 -29.96875 C 9.609375 -29.007812 8.984375 -27.46875 8.734375 -25.34375 C 8.734375 -25.09375 8.734375 -24.925781 8.734375 -24.84375 C 8.859375 -23.507812 8.941406 -21.675781 8.984375 -19.34375 C 9.066406 -18.5625 9.078125 -17.609375 9.015625 -16.484375 C 8.953125 -15.359375 8.753906 -14.441406 8.421875 -13.734375 C 8.046875 -13.109375 7.523438 -12.816406 6.859375 -12.859375 C 6.203125 -12.898438 5.6875 -13.210938 5.3125 -13.796875 C 5.269531 -13.796875 5.25 -13.773438 5.25 -13.734375 C 5.039062 -14.066406 4.863281 -14.484375 4.71875 -14.984375 C 4.570312 -15.484375 4.476562 -15.867188 4.4375 -16.140625 C 4.394531 -16.410156 4.351562 -16.90625 4.3125 -17.625 C 4.269531 -18.351562 4.25 -18.757812 4.25 -18.84375 C 4.207031 -19.507812 4.125 -20.457031 4 -21.6875 C 3.875 -22.914062 3.8125 -23.65625 3.8125 -23.90625 C 3.519531 -27.03125 3.125 -30.296875 2.625 -33.703125 C 2.539062 -34.453125 2.800781 -35.035156 3.40625 -35.453125 C 4.007812 -35.867188 4.601562 -35.785156 5.1875 -35.203125 C 6.132812 -34.242188 6.898438 -32.972656 7.484375 -31.390625 C 8.898438 -33.265625 10.671875 -34.347656 12.796875 -34.640625 Z M 14.546875 -27.78125 C 14.628906 -27.695312 14.691406 -27.613281 14.734375 -27.53125 C 14.648438 -27.613281 14.585938 -27.695312 14.546875 -27.78125 Z M 14.546875 -27.78125 "/></g></g></g><g fill="#38b6ff" fill-opacity="1"><g transform="translate(214.94097, 213.114582)"><g><path d="M 22.84375 -22.78125 C 23.34375 -23.320312 23.914062 -23.507812 24.5625 -23.34375 C 25.207031 -23.175781 25.664062 -22.8125 25.9375 -22.25 C 26.207031 -21.6875 26.195312 -21.070312 25.90625 -20.40625 C 24.570312 -18.082031 23.09375 -16.523438 21.46875 -15.734375 C 19.394531 -14.734375 17.128906 -14.628906 14.671875 -15.421875 C 12.085938 -16.253906 9.835938 -17.664062 7.921875 -19.65625 C 8.253906 -17.582031 8.503906 -16.046875 8.671875 -15.046875 C 8.753906 -14.296875 8.640625 -13.609375 8.328125 -12.984375 C 8.015625 -12.359375 7.503906 -11.941406 6.796875 -11.734375 C 6.304688 -11.609375 5.832031 -11.617188 5.375 -11.765625 C 4.914062 -11.910156 4.519531 -12.140625 4.1875 -12.453125 C 3.851562 -12.765625 3.625 -13.148438 3.5 -13.609375 C 1.875 -18.429688 0.9375 -24.734375 0.6875 -32.515625 C 0.5625 -35.390625 0.601562 -38.179688 0.8125 -40.890625 C 1.0625 -43.878906 1.351562 -45.976562 1.6875 -47.1875 C 1.894531 -47.9375 2.164062 -48.664062 2.5 -49.375 C 2.832031 -50.082031 3.257812 -50.769531 3.78125 -51.4375 C 4.300781 -52.101562 4.910156 -52.582031 5.609375 -52.875 C 6.316406 -53.164062 7.085938 -53.164062 7.921875 -52.875 C 8.460938 -52.707031 8.972656 -52.351562 9.453125 -51.8125 C 9.929688 -51.269531 10.304688 -50.6875 10.578125 -50.0625 C 10.847656 -49.4375 11.046875 -48.8125 11.171875 -48.1875 C 11.546875 -46.4375 11.398438 -44.210938 10.734375 -41.515625 C 9.984375 -38.265625 8.566406 -35.285156 6.484375 -32.578125 C 6.523438 -31.828125 6.566406 -31.082031 6.609375 -30.34375 C 7.023438 -30.675781 7.984375 -31.460938 9.484375 -32.703125 C 10.773438 -33.785156 11.816406 -34.617188 12.609375 -35.203125 C 12.734375 -35.285156 12.921875 -35.429688 13.171875 -35.640625 C 13.421875 -35.847656 13.617188 -36.003906 13.765625 -36.109375 C 13.910156 -36.210938 14.097656 -36.335938 14.328125 -36.484375 C 14.554688 -36.628906 14.773438 -36.742188 14.984375 -36.828125 C 15.191406 -36.910156 15.421875 -36.972656 15.671875 -37.015625 C 16.171875 -37.097656 16.628906 -36.960938 17.046875 -36.609375 C 17.460938 -36.253906 17.566406 -35.804688 17.359375 -35.265625 C 17.316406 -35.054688 17.234375 -34.847656 17.109375 -34.640625 C 16.984375 -34.429688 16.828125 -34.210938 16.640625 -33.984375 C 16.453125 -33.753906 16.304688 -33.585938 16.203125 -33.484375 C 16.097656 -33.378906 15.898438 -33.179688 15.609375 -32.890625 C 15.316406 -32.597656 15.148438 -32.429688 15.109375 -32.390625 C 14.734375 -32.015625 13.816406 -31.144531 12.359375 -29.78125 C 12.191406 -29.613281 11.835938 -29.257812 11.296875 -28.71875 C 10.753906 -28.175781 10.335938 -27.78125 10.046875 -27.53125 C 9.753906 -27.28125 9.367188 -26.957031 8.890625 -26.5625 C 8.410156 -26.164062 7.960938 -25.820312 7.546875 -25.53125 C 9.710938 -22.988281 12.335938 -21.132812 15.421875 -19.96875 C 17.085938 -19.300781 18.5 -19.257812 19.65625 -19.84375 C 19.820312 -19.925781 20.019531 -20.039062 20.25 -20.1875 C 20.476562 -20.332031 20.675781 -20.476562 20.84375 -20.625 C 21.007812 -20.769531 21.1875 -20.945312 21.375 -21.15625 C 21.5625 -21.363281 21.726562 -21.539062 21.875 -21.6875 C 22.019531 -21.832031 22.1875 -22.019531 22.375 -22.25 C 22.5625 -22.476562 22.71875 -22.65625 22.84375 -22.78125 Z M 7.484375 -49 Z M 6.984375 -48.9375 L 6.859375 -49 L 7.046875 -48.875 C 7.003906 -48.875 6.984375 -48.894531 6.984375 -48.9375 Z M 6.546875 -44.8125 C 6.503906 -44.03125 6.472656 -42.972656 6.453125 -41.640625 C 6.429688 -40.304688 6.421875 -38.992188 6.421875 -37.703125 C 7.171875 -39.410156 7.710938 -41.160156 8.046875 -42.953125 C 8.503906 -45.566406 8.484375 -47.3125 7.984375 -48.1875 C 7.859375 -48.4375 7.648438 -48.625 7.359375 -48.75 C 7.234375 -48.457031 7.085938 -48.039062 6.921875 -47.5 C 6.878906 -47.207031 6.773438 -46.644531 6.609375 -45.8125 C 6.609375 -45.726562 6.609375 -45.664062 6.609375 -45.625 C 6.609375 -45.582031 6.609375 -45.539062 6.609375 -45.5 C 6.566406 -45.289062 6.546875 -45.0625 6.546875 -44.8125 Z M 6.546875 -44.8125 "/></g></g></g><g fill="#38b6ff" fill-opacity="1"><g transform="translate(233.668417, 213.114582)"><g><path d="M 20.96875 -24.15625 C 21.675781 -24.363281 22.164062 -24.132812 22.4375 -23.46875 C 22.707031 -22.800781 22.550781 -22.257812 21.96875 -21.84375 C 21.632812 -21.632812 20.65625 -21.175781 19.03125 -20.46875 C 18.625 -20.300781 18.066406 -20.039062 17.359375 -19.6875 C 16.648438 -19.332031 16.191406 -19.113281 15.984375 -19.03125 C 15.691406 -18.90625 15.203125 -18.6875 14.515625 -18.375 C 13.828125 -18.070312 13.296875 -17.835938 12.921875 -17.671875 C 14.671875 -13.460938 14.753906 -10.128906 13.171875 -7.671875 C 12.503906 -6.597656 11.617188 -5.800781 10.515625 -5.28125 C 9.410156 -4.757812 8.296875 -4.6875 7.171875 -5.0625 C 6.097656 -5.394531 5.195312 -6.035156 4.46875 -6.984375 C 3.738281 -7.941406 3.3125 -8.984375 3.1875 -10.109375 C 2.851562 -12.898438 4.035156 -15.484375 6.734375 -17.859375 C 6.734375 -17.859375 6.710938 -17.878906 6.671875 -17.921875 C 6.628906 -18.003906 6.609375 -18.066406 6.609375 -18.109375 C 5.953125 -19.390625 5.507812 -20.300781 5.28125 -20.84375 C 5.050781 -21.382812 4.75 -22.1875 4.375 -23.25 C 4 -24.3125 3.75 -25.28125 3.625 -26.15625 C 3.125 -29.363281 3.851562 -31.921875 5.8125 -33.828125 C 6.632812 -34.660156 7.753906 -35.140625 9.171875 -35.265625 C 10.585938 -35.390625 11.796875 -35.140625 12.796875 -34.515625 C 13.710938 -33.972656 14.421875 -33.210938 14.921875 -32.234375 C 15.421875 -31.265625 15.609375 -30.257812 15.484375 -29.21875 C 15.316406 -28.050781 14.765625 -27.144531 13.828125 -26.5 C 12.890625 -25.851562 11.878906 -25.84375 10.796875 -26.46875 C 10.171875 -26.925781 9.992188 -27.5 10.265625 -28.1875 C 10.535156 -28.875 11.066406 -29.132812 11.859375 -28.96875 C 12.359375 -28.84375 12.585938 -29.070312 12.546875 -29.65625 C 12.460938 -30.445312 12.171875 -31.046875 11.671875 -31.453125 C 11.585938 -31.492188 11.523438 -31.515625 11.484375 -31.515625 C 10.523438 -32.015625 9.796875 -31.644531 9.296875 -30.40625 C 9.128906 -29.988281 9.035156 -29.519531 9.015625 -29 C 8.992188 -28.476562 9.015625 -28 9.078125 -27.5625 C 9.140625 -27.125 9.265625 -26.601562 9.453125 -26 C 9.640625 -25.394531 9.796875 -24.925781 9.921875 -24.59375 C 10.046875 -24.257812 10.234375 -23.800781 10.484375 -23.21875 C 10.566406 -23.050781 10.609375 -22.925781 10.609375 -22.84375 C 10.816406 -22.34375 11.128906 -21.65625 11.546875 -20.78125 C 12.835938 -21.40625 14.253906 -21.96875 15.796875 -22.46875 C 19.160156 -23.59375 20.882812 -24.15625 20.96875 -24.15625 Z M 9.421875 -10.921875 C 9.503906 -11.585938 9.171875 -12.710938 8.421875 -14.296875 C 8.421875 -14.335938 8.410156 -14.378906 8.390625 -14.421875 C 8.367188 -14.460938 8.359375 -14.503906 8.359375 -14.546875 C 7.148438 -13.171875 6.691406 -11.878906 6.984375 -10.671875 C 7.191406 -9.796875 7.617188 -9.410156 8.265625 -9.515625 C 8.910156 -9.617188 9.296875 -10.085938 9.421875 -10.921875 Z M 9.421875 -10.921875 "/></g></g></g><g clip-path="url(#c72f6be1ce)"><path fill="#38b6ff" d="M 208.601562 148.886719 C 208.148438 148.566406 207.625 148.527344 207.105469 148.6875 C 206.734375 148.800781 206.429688 149.042969 206.101562 149.238281 C 205.179688 149.789062 204.476562 149.765625 203.476562 149.492188 C 202.660156 149.269531 201.144531 148.816406 200.546875 149.601562 C 200.292969 149.394531 200.035156 149.234375 199.765625 149.152344 C 198.992188 148.910156 198.179688 149.589844 197.699219 150.164062 C 197.648438 150.222656 197.644531 150.292969 197.664062 150.355469 C 197.460938 150.535156 197.304688 150.746094 197.257812 151.03125 C 197.230469 151.027344 197.203125 151.019531 197.175781 151.011719 C 196.757812 150.863281 196.34375 150.882812 195.933594 151.003906 C 195.789062 151.03125 195.640625 151.070312 195.484375 151.117188 C 195.425781 151.136719 195.398438 151.175781 195.390625 151.21875 C 194.644531 151.585938 193.941406 152.191406 193.328125 152.589844 C 191.355469 153.882812 189.308594 155.0625 187.355469 156.382812 C 185.832031 157.417969 183.332031 158.761719 182.976562 160.75 C 182.6875 162.367188 183.679688 164.324219 184.539062 165.632812 C 185.421875 166.976562 186.996094 168.667969 188.640625 169 C 188.710938 169.015625 188.777344 169.023438 188.847656 169.035156 C 188.847656 169.039062 188.847656 169.042969 188.847656 169.050781 C 188.859375 169.140625 188.972656 169.132812 189.007812 169.066406 C 189.011719 169.058594 189.011719 169.054688 189.015625 169.050781 C 189.992188 169.121094 190.984375 168.71875 191.90625 168.214844 C 191.960938 168.203125 192.015625 168.191406 192.070312 168.175781 C 192.117188 168.164062 192.140625 168.125 192.144531 168.082031 C 192.671875 167.78125 193.171875 167.457031 193.628906 167.1875 C 195.605469 166.015625 197.503906 164.707031 199.347656 163.335938 C 200.765625 162.277344 202.542969 160.914062 202.976562 159.085938 C 203.015625 158.921875 203.03125 158.761719 203.035156 158.605469 C 203.675781 158.972656 204.183594 158.59375 204.808594 158.011719 C 205.367188 157.492188 205.792969 157.144531 205.46875 156.410156 C 205.394531 156.238281 205.296875 156.0625 205.1875 155.890625 C 205.679688 155.738281 206 155.425781 206.191406 154.867188 C 206.359375 154.386719 206.027344 153.90625 206.214844 153.375 C 206.5 152.558594 207.316406 152.335938 207.945312 151.914062 C 208.964844 151.226562 209.960938 149.84375 208.601562 148.886719 Z M 200.714844 150.90625 C 200.761719 150.957031 200.804688 151.011719 200.851562 151.066406 C 200.277344 151.472656 199.691406 152.042969 199.289062 152.65625 C 199.09375 152.402344 198.898438 152.164062 198.6875 151.945312 C 198.695312 151.941406 198.699219 151.941406 198.703125 151.933594 C 199.179688 151.40625 199.722656 150.914062 200.1875 150.375 C 200.382812 150.539062 200.558594 150.730469 200.714844 150.90625 Z M 202.613281 155.484375 C 202.390625 155.6875 202.171875 155.886719 201.957031 156.09375 C 201.714844 155.78125 201.457031 155.480469 201.203125 155.1875 C 201.40625 154.972656 201.597656 154.742188 201.792969 154.523438 C 202.082031 154.195312 202.417969 153.863281 202.640625 153.484375 C 202.894531 153.808594 203.21875 154.222656 203.527344 154.664062 C 203.199219 154.898438 202.90625 155.214844 202.613281 155.484375 Z M 203.644531 154.832031 C 203.863281 155.152344 204.074219 155.484375 204.238281 155.804688 C 203.949219 156.058594 203.664062 156.3125 203.367188 156.554688 C 203.128906 156.75 202.871094 156.925781 202.640625 157.121094 C 202.492188 156.847656 202.316406 156.574219 202.121094 156.3125 C 202.378906 156.101562 202.621094 155.875 202.867188 155.644531 C 203.128906 155.390625 203.425781 155.128906 203.644531 154.832031 Z M 201.695312 154.175781 C 201.460938 154.429688 201.21875 154.679688 200.988281 154.941406 C 200.703125 154.609375 200.433594 154.289062 200.21875 153.984375 C 200.789062 153.492188 201.398438 153.015625 201.917969 152.480469 C 202.035156 152.644531 202.148438 152.8125 202.261719 152.980469 C 202.324219 153.074219 202.421875 153.199219 202.535156 153.34375 C 202.21875 153.574219 201.957031 153.886719 201.695312 154.175781 Z M 200.070312 153.765625 C 199.867188 153.472656 199.667969 153.179688 199.464844 152.898438 C 199.628906 152.664062 199.792969 152.429688 199.972656 152.210938 C 200.273438 151.84375 200.617188 151.515625 200.953125 151.1875 C 201.246094 151.539062 201.515625 151.90625 201.777344 152.28125 C 201.125 152.632812 200.558594 153.1875 200.070312 153.765625 Z M 198.675781 150.109375 C 198.777344 150.054688 198.875 150.011719 198.960938 149.992188 C 199.359375 149.898438 199.703125 150.023438 200.007812 150.234375 C 199.433594 150.652344 198.953125 151.257812 198.578125 151.835938 C 198.378906 151.644531 198.171875 151.476562 197.945312 151.335938 C 197.953125 150.820312 198.304688 150.503906 198.675781 150.109375 Z M 202.054688 159.890625 C 201.160156 158.9375 200.273438 158.019531 199.609375 156.875 C 199.582031 156.832031 199.507812 156.847656 199.519531 156.902344 C 199.8125 158.160156 200.929688 159.265625 201.882812 160.15625 C 201.488281 160.734375 200.964844 161.257812 200.566406 161.636719 C 199.09375 163.039062 197.328125 164.207031 195.640625 165.335938 C 194.574219 166.046875 193.484375 166.726562 192.363281 167.351562 C 192 167.554688 191.621094 167.78125 191.230469 167.980469 C 190.546875 167.957031 189.964844 167.867188 189.25 167.394531 C 188.566406 166.945312 188.035156 166.359375 187.40625 165.851562 C 187.351562 165.8125 187.261719 165.863281 187.28125 165.929688 C 187.523438 166.863281 188.488281 167.464844 189.25 167.960938 C 189.621094 168.203125 189.957031 168.328125 190.292969 168.378906 C 190.011719 168.46875 189.722656 168.53125 189.433594 168.546875 C 189.335938 168.550781 189.242188 168.550781 189.148438 168.546875 C 189.160156 168.421875 189.164062 168.300781 189.15625 168.175781 C 189.152344 168.085938 189.019531 168.089844 188.988281 168.160156 C 188.941406 168.277344 188.902344 168.398438 188.875 168.519531 C 188.628906 168.484375 188.382812 168.414062 188.140625 168.320312 C 188.148438 168.277344 188.15625 168.230469 188.160156 168.183594 C 188.179688 168.027344 188.222656 167.867188 188.148438 167.722656 C 188.132812 167.6875 188.082031 167.671875 188.050781 167.699219 C 187.929688 167.808594 187.910156 167.964844 187.871094 168.117188 C 187.867188 168.144531 187.859375 168.167969 187.851562 168.195312 C 187.621094 168.082031 187.394531 167.949219 187.171875 167.796875 C 187.230469 167.613281 187.292969 167.425781 187.363281 167.253906 C 187.398438 167.175781 187.28125 167.136719 187.25 167.207031 C 187.167969 167.382812 187.109375 167.550781 187.078125 167.726562 C 186.898438 167.597656 186.71875 167.457031 186.546875 167.308594 C 186.59375 167.128906 186.625 166.945312 186.667969 166.765625 C 186.691406 166.675781 186.5625 166.582031 186.507812 166.679688 C 186.433594 166.820312 186.375 166.972656 186.347656 167.128906 C 186.183594 166.972656 186.019531 166.8125 185.863281 166.644531 C 185.894531 166.570312 185.914062 166.496094 185.929688 166.421875 C 185.949219 166.304688 185.988281 166.167969 185.964844 166.050781 C 185.949219 165.988281 185.867188 165.964844 185.828125 166.019531 C 185.75 166.121094 185.726562 166.273438 185.695312 166.398438 C 185.691406 166.414062 185.6875 166.429688 185.6875 166.449219 C 185.519531 166.261719 185.359375 166.070312 185.210938 165.878906 C 185.269531 165.675781 185.3125 165.46875 185.386719 165.269531 C 185.414062 165.1875 185.296875 165.148438 185.261719 165.222656 C 185.179688 165.382812 185.117188 165.542969 185.082031 165.714844 C 184.890625 165.460938 184.714844 165.210938 184.554688 164.96875 C 184.617188 164.804688 184.660156 164.632812 184.707031 164.460938 C 184.726562 164.40625 184.648438 164.375 184.625 164.429688 C 184.566406 164.558594 184.507812 164.6875 184.457031 164.820312 C 184.328125 164.617188 184.207031 164.417969 184.101562 164.234375 C 184.070312 164.179688 184.039062 164.125 184.007812 164.066406 C 184.0625 163.847656 184.109375 163.625 184.144531 163.398438 C 184.152344 163.339844 184.054688 163.3125 184.039062 163.375 C 183.996094 163.554688 183.960938 163.734375 183.929688 163.914062 C 183.808594 163.6875 183.703125 163.453125 183.609375 163.21875 C 183.738281 162.886719 183.910156 162.542969 183.960938 162.203125 C 183.96875 162.15625 183.910156 162.148438 183.886719 162.175781 C 183.695312 162.375 183.585938 162.667969 183.515625 162.953125 C 183.441406 162.730469 183.382812 162.5 183.351562 162.269531 C 183.363281 162.269531 183.375 162.261719 183.382812 162.242188 C 183.539062 161.8125 183.78125 161.402344 183.90625 160.964844 C 183.921875 160.914062 183.859375 160.878906 183.828125 160.921875 C 183.5625 161.242188 183.429688 161.679688 183.328125 162.085938 C 183.265625 161.425781 183.398438 160.769531 183.871094 160.152344 C 183.960938 160.035156 184.058594 159.921875 184.160156 159.808594 C 183.929688 160.507812 184.1875 161.210938 184.414062 161.925781 C 184.714844 162.871094 185.078125 163.917969 185.871094 164.558594 C 185.953125 164.621094 186.09375 164.515625 186.035156 164.425781 C 185.628906 163.769531 185.230469 163.152344 184.9375 162.433594 C 184.59375 161.589844 184.050781 160.484375 184.382812 159.578125 C 185.015625 158.953125 185.804688 158.410156 186.488281 157.910156 C 188.234375 156.625 190.101562 155.515625 191.941406 154.371094 C 192.703125 153.898438 193.460938 153.414062 194.203125 152.910156 C 194.824219 152.488281 195.4375 151.988281 196.132812 151.707031 C 196.265625 152.316406 196.605469 152.917969 196.878906 153.46875 C 197.167969 154.054688 197.476562 154.675781 197.890625 155.183594 C 197.953125 155.253906 198.066406 155.179688 198.03125 155.09375 C 197.769531 154.464844 197.394531 153.871094 197.085938 153.261719 C 196.820312 152.734375 196.617188 152.144531 196.300781 151.644531 C 196.347656 151.628906 196.390625 151.613281 196.4375 151.601562 C 196.71875 151.652344 196.996094 151.71875 197.269531 151.839844 C 197.308594 151.859375 197.351562 151.875 197.390625 151.894531 C 197.777344 152.878906 198.832031 153.964844 199.351562 154.578125 C 200.28125 155.683594 201.210938 156.84375 202.226562 157.882812 C 202.375 158.15625 202.464844 158.421875 202.460938 158.664062 C 202.453125 159.070312 202.289062 159.488281 202.054688 159.890625 Z M 204.1875 157.582031 C 203.757812 157.789062 203.351562 157.683594 202.976562 157.441406 C 203.523438 157.121094 204 156.585938 204.363281 156.066406 C 204.664062 156.742188 204.710938 157.328125 204.1875 157.582031 Z M 207.308594 151.691406 C 206.925781 151.921875 206.515625 152.128906 206.203125 152.460938 C 205.953125 152.726562 205.808594 153.027344 205.707031 153.34375 C 205.683594 153.230469 205.65625 153.113281 205.648438 152.992188 C 205.640625 152.917969 205.523438 152.925781 205.515625 153 C 205.5 153.214844 205.515625 153.410156 205.640625 153.589844 C 205.585938 153.800781 205.542969 154.019531 205.496094 154.234375 C 205.464844 154.160156 205.433594 154.085938 205.40625 154.011719 C 205.363281 153.890625 205.347656 153.664062 205.21875 153.601562 C 205.191406 153.589844 205.164062 153.605469 205.148438 153.625 C 205.125 153.648438 205.121094 153.667969 205.128906 153.699219 C 205.136719 153.722656 205.152344 153.746094 205.179688 153.746094 C 205.195312 153.800781 205.203125 153.894531 205.214844 153.929688 C 205.242188 154.015625 205.269531 154.097656 205.300781 154.179688 C 205.339844 154.28125 205.382812 154.378906 205.4375 154.472656 C 205.394531 154.644531 205.34375 154.816406 205.277344 154.980469 C 205.226562 154.863281 205.179688 154.746094 205.125 154.628906 C 205.042969 154.433594 204.992188 154.203125 204.875 154.027344 C 204.851562 153.992188 204.789062 154.011719 204.785156 154.054688 C 204.773438 154.265625 204.878906 154.511719 204.953125 154.707031 C 205.011719 154.875 205.089844 155.027344 205.183594 155.175781 C 205.144531 155.253906 205.097656 155.332031 205.046875 155.40625 C 204.773438 154.855469 204.476562 154.320312 204.179688 153.78125 C 204.148438 153.726562 204.058594 153.765625 204.089844 153.820312 C 204.386719 154.375 204.679688 154.929688 205.003906 155.464844 C 204.984375 155.488281 204.96875 155.511719 204.949219 155.535156 C 204.632812 155.09375 204.273438 154.664062 203.992188 154.253906 C 203.507812 153.546875 203.03125 152.835938 202.542969 152.136719 C 202.121094 151.527344 201.527344 150.554688 200.839844 149.871094 C 202 149.1875 203.265625 150.125 204.507812 150.214844 C 205.574219 150.289062 206.011719 149.558594 206.917969 149.289062 C 206.917969 149.316406 206.941406 149.347656 206.972656 149.339844 C 207.066406 149.316406 207.152344 149.289062 207.238281 149.273438 C 207.390625 149.273438 207.542969 149.277344 207.691406 149.28125 C 207.953125 149.359375 208.195312 149.554688 208.34375 149.777344 C 208.375 149.820312 208.394531 149.867188 208.410156 149.910156 C 208.417969 149.972656 208.429688 150.03125 208.4375 150.089844 C 208.4375 150.257812 208.371094 150.425781 208.308594 150.589844 C 208.230469 150.800781 208.164062 151.011719 208.105469 151.226562 C 207.828125 151.417969 207.496094 151.582031 207.308594 151.691406 Z M 207.308594 151.691406 " fill-opacity="1" fill-rule="nonzero"/></g><path fill="#38b6ff" d="M 215.382812 154.546875 C 215.457031 153.574219 214.734375 152.429688 213.859375 151.785156 C 213.851562 151.777344 213.847656 151.765625 213.839844 151.757812 C 213.378906 151.230469 211.902344 150.566406 212.171875 151.882812 C 212.230469 152.171875 212.40625 152.453125 212.496094 152.738281 C 212.632812 153.183594 212.699219 153.640625 212.777344 154.101562 C 212.882812 154.734375 212.980469 155.621094 213.441406 156.113281 C 214.363281 157.101562 215.320312 155.347656 215.382812 154.546875 Z M 214.632812 155.3125 C 214.414062 155.730469 214.460938 155.746094 213.953125 155.667969 C 213.402344 155.585938 213.445312 155.480469 213.304688 154.921875 C 213.136719 154.257812 213.09375 153.5625 212.921875 152.898438 C 212.851562 152.621094 212.648438 152.308594 212.621094 152.039062 C 212.539062 151.925781 212.570312 151.8125 212.707031 151.703125 C 212.742188 151.425781 212.855469 151.378906 213.039062 151.558594 C 213.0625 151.566406 213.089844 151.582031 213.113281 151.589844 C 213.765625 152.121094 214.445312 152.851562 214.769531 153.605469 C 215.027344 154.199219 214.929688 154.753906 214.632812 155.3125 Z M 214.632812 155.3125 " fill-opacity="1" fill-rule="nonzero"/><path fill="#38b6ff" d="M 213.550781 150.089844 C 213.96875 150.261719 214.335938 150.539062 214.761719 150.691406 C 215.457031 150.933594 216.503906 150.902344 216.726562 150.023438 C 216.964844 149.089844 215.800781 148.707031 215.105469 148.542969 C 214.3125 148.351562 213.449219 148.359375 212.652344 148.574219 C 212.628906 148.554688 212.597656 148.546875 212.558594 148.546875 C 212.058594 148.574219 211.527344 148.761719 211.238281 149.199219 C 211.199219 149.261719 211.175781 149.359375 211.21875 149.429688 C 211.425781 149.773438 211.738281 149.746094 212.128906 149.792969 C 212.617188 149.851562 213.089844 149.902344 213.550781 150.089844 Z M 213.054688 149.460938 C 212.859375 149.414062 212.515625 149.433594 212.332031 149.347656 C 211.976562 149.421875 211.902344 149.324219 212.101562 149.058594 C 212.277344 148.96875 212.457031 148.882812 212.636719 148.800781 C 212.644531 148.796875 212.648438 148.792969 212.65625 148.789062 C 213.140625 148.675781 213.628906 148.617188 214.164062 148.660156 C 214.546875 148.691406 214.929688 148.757812 215.296875 148.878906 C 215.566406 148.964844 215.828125 149.078125 216.078125 149.21875 C 216.042969 150.277344 215.730469 150.675781 215.140625 150.417969 C 214.445312 150.375 213.761719 149.640625 213.054688 149.460938 Z M 213.054688 149.460938 " fill-opacity="1" fill-rule="nonzero"/><g clip-path="url(#c4e6d5cf01)"><path fill="#38b6ff" d="M 212.734375 146.769531 C 213.050781 146.515625 213.800781 145.609375 213.507812 145.171875 C 213.207031 144.71875 212.429688 145.125 212.101562 145.320312 C 211.433594 145.714844 210.859375 146.230469 210.367188 146.820312 C 210.292969 146.839844 210.222656 146.863281 210.148438 146.886719 C 210.03125 146.925781 210.039062 147.074219 210.109375 147.148438 C 210.074219 147.195312 210.039062 147.238281 210.003906 147.289062 C 209.96875 147.339844 210.046875 147.394531 210.085938 147.347656 C 210.128906 147.292969 210.175781 147.238281 210.21875 147.1875 C 210.226562 147.1875 210.234375 147.1875 210.242188 147.1875 C 210.828125 147.027344 211.363281 147.066406 211.957031 147.042969 C 212.261719 147.027344 212.496094 146.960938 212.734375 146.769531 Z M 212.273438 146.652344 C 211.921875 146.765625 211.652344 146.695312 211.292969 146.691406 C 211.054688 146.6875 210.824219 146.71875 210.597656 146.765625 C 210.84375 146.511719 211.101562 146.273438 211.378906 146.054688 C 211.640625 145.847656 211.917969 145.65625 212.207031 145.492188 C 212.554688 145.296875 213.445312 145.035156 213.144531 145.820312 C 213 146.207031 212.648438 146.535156 212.273438 146.652344 Z M 212.273438 146.652344 " fill-opacity="1" fill-rule="nonzero"/></g><path fill="#38b6ff" d="M 199.164062 162.640625 C 199.46875 161.734375 199.695312 160.8125 199.835938 159.863281 C 199.835938 159.851562 199.820312 159.851562 199.816406 159.863281 C 199.617188 160.792969 199.390625 161.714844 199.125 162.628906 C 199.117188 162.652344 199.152344 162.667969 199.164062 162.640625 Z M 199.164062 162.640625 " fill-opacity="1" fill-rule="nonzero"/><path fill="#38b6ff" d="M 198.015625 163.300781 C 198.234375 162.316406 198.398438 161.324219 198.507812 160.320312 C 198.515625 160.242188 198.402344 160.234375 198.390625 160.308594 C 198.222656 161.300781 198.058594 162.296875 197.898438 163.292969 C 197.886719 163.367188 198 163.375 198.015625 163.300781 Z M 198.015625 163.300781 " fill-opacity="1" fill-rule="nonzero"/><path fill="#38b6ff" d="M 196.816406 161.160156 C 196.554688 162.402344 196.28125 163.644531 196.078125 164.902344 C 196.070312 164.957031 196.164062 164.980469 196.175781 164.921875 C 196.46875 163.679688 196.691406 162.421875 196.921875 161.167969 C 196.9375 161.101562 196.828125 161.09375 196.816406 161.160156 Z M 196.816406 161.160156 " fill-opacity="1" fill-rule="nonzero"/><path fill="#38b6ff" d="M 194.894531 161.382812 C 194.832031 162.53125 194.726562 163.675781 194.652344 164.824219 C 194.644531 164.917969 194.777344 164.925781 194.792969 164.835938 C 194.996094 163.699219 195.078125 162.554688 195.109375 161.402344 C 195.113281 161.265625 194.902344 161.242188 194.894531 161.382812 Z M 194.894531 161.382812 " fill-opacity="1" fill-rule="nonzero"/><path fill="#38b6ff" d="M 192.882812 161.617188 C 192.886719 161.527344 192.746094 161.511719 192.738281 161.605469 C 192.660156 162.609375 192.570312 163.617188 192.519531 164.625 C 192.515625 164.695312 192.621094 164.703125 192.628906 164.632812 C 192.738281 163.628906 192.804688 162.625 192.882812 161.617188 Z M 192.882812 161.617188 " fill-opacity="1" fill-rule="nonzero"/><path fill="#38b6ff" d="M 191.476562 163.578125 C 191.503906 163.488281 191.363281 163.433594 191.335938 163.527344 C 191.050781 164.460938 190.921875 165.410156 190.976562 166.386719 C 190.976562 166.4375 191.066406 166.4375 191.066406 166.382812 C 191.0625 165.425781 191.1875 164.496094 191.476562 163.578125 Z M 191.476562 163.578125 " fill-opacity="1" fill-rule="nonzero"/></svg>