<svg xmlns="http://www.w3.org/2000/svg" xmlns:xlink="http://www.w3.org/1999/xlink" width="500" zoomAndPan="magnify" viewBox="0 0 375 374.999991" height="500" preserveAspectRatio="xMidYMid meet" version="1.0"><defs><g/><clipPath id="59fba31eeb"><path d="M 178.25 112 L 230 112 L 230 152.558594 L 178.25 152.558594 Z M 178.25 112 " clip-rule="nonzero"/></clipPath><clipPath id="66027218f0"><path d="M 230 105.308594 L 238 105.308594 L 238 111 L 230 111 Z M 230 105.308594 " clip-rule="nonzero"/></clipPath></defs><g fill="#ffffff" fill-opacity="1"><g transform="translate(67.157131, 236.711725)"><g><path d="M 47.140625 -65.25 C 44.816406 -65.800781 42.9375 -67 41.5 -68.84375 C 40.0625 -70.6875 39.421875 -72.765625 39.578125 -75.078125 C 39.660156 -76.117188 40.140625 -76.9375 41.015625 -77.53125 C 41.898438 -78.132812 42.820312 -78.296875 43.78125 -78.015625 C 44.738281 -77.734375 45.378906 -77.035156 45.703125 -75.921875 C 46.097656 -74.242188 46.953125 -73.242188 48.265625 -72.921875 C 49.585938 -72.597656 50.910156 -72.835938 52.234375 -73.640625 C 53.554688 -74.441406 54.535156 -75.441406 55.171875 -76.640625 C 56.453125 -78.796875 56.988281 -81.132812 56.78125 -83.65625 C 56.582031 -86.175781 55.609375 -88.351562 53.859375 -90.1875 C 50.816406 -93.070312 46.535156 -94.472656 41.015625 -94.390625 C 37.015625 -94.304688 32.976562 -93.066406 28.90625 -90.671875 C 25.46875 -88.671875 22.910156 -85.753906 21.234375 -81.921875 C 19.867188 -78.722656 19.347656 -75.484375 19.671875 -72.203125 C 20.472656 -65.484375 24.988281 -58.765625 33.21875 -52.046875 C 34.738281 -50.929688 37.957031 -48.753906 42.875 -45.515625 C 47.789062 -42.273438 51.367188 -39.5 53.609375 -37.1875 C 56.972656 -33.738281 59.351562 -29.773438 60.75 -25.296875 C 62.144531 -20.828125 62.363281 -16.273438 61.40625 -11.640625 C 60.445312 -7.160156 58.390625 -3.179688 55.234375 0.296875 C 52.078125 3.773438 48.519531 6.3125 44.5625 7.90625 C 40.601562 9.507812 36.363281 9.953125 31.84375 9.234375 C 27.320312 8.515625 23.34375 6.476562 19.90625 3.125 C 16.550781 -0.15625 14.59375 -4.113281 14.03125 -8.75 C 13.46875 -13.394531 14.75 -17.554688 17.875 -21.234375 C 20.664062 -24.191406 24.097656 -25.847656 28.171875 -26.203125 C 32.253906 -26.566406 35.773438 -25.304688 38.734375 -22.421875 C 39.691406 -21.460938 40.128906 -20.382812 40.046875 -19.1875 C 39.972656 -17.988281 39.515625 -17.03125 38.671875 -16.3125 C 37.835938 -15.59375 36.859375 -15.128906 35.734375 -14.921875 C 34.617188 -14.722656 33.539062 -15.144531 32.5 -16.1875 C 31.457031 -17.070312 30.253906 -17.429688 28.890625 -17.265625 C 27.535156 -17.109375 26.34375 -16.550781 25.3125 -15.59375 C 24.101562 -14.3125 23.5625 -12.867188 23.6875 -11.265625 C 23.8125 -9.671875 24.390625 -8.15625 25.421875 -6.71875 C 27.660156 -3.59375 31.0625 -2.070312 35.625 -2.15625 C 38.820312 -2.15625 41.816406 -3.597656 44.609375 -6.484375 C 46.929688 -8.878906 48.375 -11.710938 48.9375 -14.984375 C 49.007812 -15.304688 49.046875 -15.671875 49.046875 -16.078125 C 49.046875 -16.628906 49.046875 -17.109375 49.046875 -17.515625 C 49.046875 -18.234375 48.96875 -18.875 48.8125 -19.4375 C 48.488281 -20.945312 47.847656 -22.460938 46.890625 -23.984375 C 46.578125 -24.546875 46.140625 -25.109375 45.578125 -25.671875 C 45.097656 -26.222656 44.457031 -26.898438 43.65625 -27.703125 C 42.375 -28.898438 41.132812 -29.941406 39.9375 -30.828125 C 38.976562 -31.546875 37.878906 -32.300781 36.640625 -33.09375 C 35.398438 -33.894531 34.140625 -34.71875 32.859375 -35.5625 C 31.578125 -36.40625 30.457031 -37.144531 29.5 -37.78125 C 19.582031 -44.8125 12.90625 -51.96875 9.46875 -59.25 C 7.15625 -64.050781 6 -68.988281 6 -74.0625 C 6 -79.132812 7.117188 -84.070312 9.359375 -88.875 C 11.597656 -93.59375 14.851562 -97.46875 19.125 -100.5 C 23.40625 -103.539062 28.144531 -105.382812 33.34375 -106.03125 C 38.21875 -106.582031 42.816406 -105.976562 47.140625 -104.21875 C 51.535156 -102.46875 55.289062 -99.472656 58.40625 -95.234375 C 60.320312 -92.753906 61.71875 -90.035156 62.59375 -87.078125 C 63.476562 -84.117188 63.703125 -81.054688 63.265625 -77.890625 C 62.828125 -74.734375 61.609375 -72 59.609375 -69.6875 C 58.566406 -68.5625 57.363281 -67.597656 56 -66.796875 C 54.644531 -66.003906 53.207031 -65.46875 51.6875 -65.1875 C 50.175781 -64.90625 48.660156 -64.925781 47.140625 -65.25 Z M 47.140625 -65.25 "/></g></g></g><g fill="#ffffff" fill-opacity="1"><g transform="translate(131.441331, 236.711725)"><g><path d="M 38.984375 -17.515625 C 41.066406 -15.992188 42.1875 -14.09375 42.34375 -11.8125 C 42.5 -9.53125 41.9375 -7.410156 40.65625 -5.453125 C 39.382812 -3.492188 37.6875 -1.753906 35.5625 -0.234375 C 33.445312 1.273438 31.390625 2.15625 29.390625 2.40625 C 24.753906 2.882812 20.753906 1.503906 17.390625 -1.734375 C 14.035156 -4.972656 11.597656 -8.992188 10.078125 -13.796875 C 7.679688 -21.066406 6.484375 -31.421875 6.484375 -44.859375 C 6.484375 -56.535156 7.082031 -68.085938 8.28125 -79.515625 C 4.28125 -79.597656 1.5625 -79.640625 0.125 -79.640625 C -0.914062 -79.722656 -1.65625 -80.179688 -2.09375 -81.015625 C -2.53125 -81.859375 -2.53125 -82.71875 -2.09375 -83.59375 C -1.65625 -84.476562 -0.914062 -84.921875 0.125 -84.921875 C 3.164062 -85.078125 6.125 -85.195312 9 -85.28125 C 9.875 -92.875 11.035156 -100.390625 12.484375 -107.828125 C 12.796875 -109.421875 13.691406 -110.414062 15.171875 -110.8125 C 16.648438 -111.21875 18.03125 -111.019531 19.3125 -110.21875 C 20.59375 -109.414062 21.191406 -108.21875 21.109375 -106.625 C 20.953125 -103.582031 20.675781 -96.546875 20.28125 -85.515625 C 24.832031 -85.597656 28.347656 -85.398438 30.828125 -84.921875 C 31.953125 -84.679688 32.515625 -83.898438 32.515625 -82.578125 C 32.515625 -81.253906 31.953125 -80.472656 30.828125 -80.234375 C 28.109375 -79.515625 24.507812 -79.195312 20.03125 -79.28125 C 19.875 -76.5625 19.753906 -74.679688 19.671875 -73.640625 C 19.109375 -60.929688 18.828125 -50.335938 18.828125 -41.859375 C 18.910156 -35.785156 19.234375 -30.628906 19.796875 -26.390625 C 20.597656 -20.628906 21.597656 -16.347656 22.796875 -13.546875 C 23.515625 -11.953125 24.507812 -10.554688 25.78125 -9.359375 C 27.0625 -8.160156 28.503906 -7.757812 30.109375 -8.15625 C 30.828125 -8.3125 31.707031 -8.867188 32.75 -9.828125 C 33.789062 -10.796875 34.070312 -11.597656 33.59375 -12.234375 C 32.945312 -13.191406 32.863281 -14.269531 33.34375 -15.46875 C 33.820312 -16.664062 34.601562 -17.460938 35.6875 -17.859375 C 36.769531 -18.265625 37.867188 -18.148438 38.984375 -17.515625 Z M 38.984375 -17.515625 "/></g></g></g><g fill="#ffffff" fill-opacity="1"><g transform="translate(161.904376, 236.711725)"><g><path d="M 49.296875 -59.375 C 50.578125 -60.40625 51.773438 -60.378906 52.890625 -59.296875 C 54.015625 -58.222656 54.054688 -57.046875 53.015625 -55.765625 C 50.453125 -52.804688 46.414062 -50.53125 40.90625 -48.9375 C 40.34375 -43.414062 38.222656 -38.617188 34.546875 -34.546875 C 32.378906 -32.140625 29.695312 -30.476562 26.5 -29.5625 C 23.300781 -28.644531 20.179688 -28.425781 17.140625 -28.90625 C 14.109375 -29.382812 11.289062 -30.640625 8.6875 -32.671875 C 6.09375 -34.710938 4.316406 -37.332031 3.359375 -40.53125 C 2.160156 -44.289062 2.421875 -48.429688 4.140625 -52.953125 C 5.859375 -57.472656 8.476562 -61.128906 12 -63.921875 C 13.351562 -66.328125 15.507812 -67.988281 18.46875 -68.90625 C 21.425781 -69.820312 24.34375 -69.960938 27.21875 -69.328125 C 30.664062 -68.609375 33.585938 -66.945312 35.984375 -64.34375 C 38.378906 -61.75 39.894531 -58.691406 40.53125 -55.171875 C 40.53125 -55.171875 40.570312 -55.128906 40.65625 -55.046875 C 44.09375 -56.085938 46.972656 -57.53125 49.296875 -59.375 Z M 23.265625 -61.046875 C 21.109375 -61.285156 19.707031 -60.804688 19.0625 -59.609375 C 18.820312 -59.046875 19.066406 -58.40625 19.796875 -57.6875 C 20.992188 -56.332031 23.507812 -55.175781 27.34375 -54.21875 C 28.382812 -53.976562 29.546875 -53.859375 30.828125 -53.859375 C 30.023438 -58.328125 27.503906 -60.722656 23.265625 -61.046875 Z M 19.671875 -38.265625 C 23.109375 -37.785156 25.988281 -39.144531 28.3125 -42.34375 C 29.1875 -43.539062 29.863281 -44.976562 30.34375 -46.65625 C 25.945312 -46.175781 21.828125 -46.894531 17.984375 -48.8125 C 16.234375 -49.695312 14.753906 -50.859375 13.546875 -52.296875 C 12.828125 -50.378906 12.390625 -48.738281 12.234375 -47.375 C 12.148438 -46.332031 12.148438 -45.453125 12.234375 -44.734375 C 12.234375 -44.171875 12.3125 -43.734375 12.46875 -43.421875 C 12.707031 -42.859375 13.023438 -42.335938 13.421875 -41.859375 C 13.828125 -41.378906 14.25 -40.9375 14.6875 -40.53125 C 15.132812 -40.132812 15.632812 -39.773438 16.1875 -39.453125 C 16.75 -39.140625 17.304688 -38.878906 17.859375 -38.671875 C 18.421875 -38.472656 19.023438 -38.335938 19.671875 -38.265625 Z M 19.671875 -38.265625 "/></g></g></g><g fill="#ffffff" fill-opacity="1"><g transform="translate(204.240781, 236.711725)"><g><path d="M 24.59375 -66.5625 C 27.863281 -66.96875 30.640625 -66.03125 32.921875 -63.75 C 35.203125 -61.46875 36.222656 -58.6875 35.984375 -55.40625 C 35.660156 -51.570312 34.179688 -48.894531 31.546875 -47.375 C 29.785156 -46.257812 27.960938 -46 26.078125 -46.59375 C 24.203125 -47.195312 22.984375 -48.457031 22.421875 -50.375 C 21.941406 -52.050781 22.441406 -53.25 23.921875 -53.96875 C 25.398438 -54.6875 26.703125 -54.488281 27.828125 -53.375 C 28.304688 -53.613281 28.585938 -53.8125 28.671875 -53.96875 C 29.148438 -54.375 29.46875 -55.015625 29.625 -55.890625 C 29.945312 -57.492188 29.507812 -58.734375 28.3125 -59.609375 C 26.863281 -60.242188 25.457031 -60.320312 24.09375 -59.84375 C 22.738281 -59.363281 21.503906 -58.601562 20.390625 -57.5625 C 18.472656 -55.726562 17.273438 -52.769531 16.796875 -48.6875 C 16.796875 -48.207031 16.796875 -47.890625 16.796875 -47.734375 C 17.035156 -45.171875 17.191406 -41.65625 17.265625 -37.1875 C 17.429688 -35.664062 17.453125 -33.820312 17.328125 -31.65625 C 17.210938 -29.5 16.832031 -27.742188 16.1875 -26.390625 C 15.46875 -25.191406 14.46875 -24.628906 13.1875 -24.703125 C 11.914062 -24.785156 10.914062 -25.382812 10.1875 -26.5 C 10.113281 -26.5 10.078125 -26.460938 10.078125 -26.390625 C 9.671875 -27.023438 9.328125 -27.820312 9.046875 -28.78125 C 8.773438 -29.738281 8.597656 -30.476562 8.515625 -31 C 8.429688 -31.519531 8.347656 -32.476562 8.265625 -33.875 C 8.191406 -35.28125 8.15625 -36.0625 8.15625 -36.21875 C 8.070312 -37.5 7.910156 -39.316406 7.671875 -41.671875 C 7.429688 -44.035156 7.3125 -45.457031 7.3125 -45.9375 C 6.757812 -51.9375 6 -58.210938 5.03125 -64.765625 C 4.875 -66.203125 5.375 -67.320312 6.53125 -68.125 C 7.695312 -68.925781 8.835938 -68.765625 9.953125 -67.640625 C 11.796875 -65.804688 13.273438 -63.367188 14.390625 -60.328125 C 17.109375 -63.921875 20.507812 -66 24.59375 -66.5625 Z M 27.953125 -53.375 C 28.109375 -53.207031 28.226562 -53.046875 28.3125 -52.890625 C 28.144531 -53.046875 28.023438 -53.207031 27.953125 -53.375 Z M 27.953125 -53.375 "/></g></g></g><g fill="#ffffff" fill-opacity="1"><g transform="translate(240.220685, 236.711725)"><g><path d="M 43.890625 -43.78125 C 44.859375 -44.820312 45.957031 -45.179688 47.1875 -44.859375 C 48.425781 -44.535156 49.304688 -43.832031 49.828125 -42.75 C 50.347656 -41.675781 50.332031 -40.5 49.78125 -39.21875 C 47.21875 -34.738281 44.378906 -31.738281 41.265625 -30.21875 C 37.265625 -28.300781 32.90625 -28.101562 28.1875 -29.625 C 23.226562 -31.21875 18.910156 -33.9375 15.234375 -37.78125 C 15.867188 -33.78125 16.347656 -30.820312 16.671875 -28.90625 C 16.828125 -27.46875 16.601562 -26.144531 16 -24.9375 C 15.40625 -23.738281 14.429688 -22.941406 13.078125 -22.546875 C 12.117188 -22.304688 11.195312 -22.328125 10.3125 -22.609375 C 9.4375 -22.890625 8.675781 -23.328125 8.03125 -23.921875 C 7.394531 -24.523438 6.957031 -25.265625 6.71875 -26.140625 C 3.59375 -35.421875 1.789062 -47.535156 1.3125 -62.484375 C 1.070312 -68.003906 1.15625 -73.363281 1.5625 -78.5625 C 2.039062 -84.3125 2.597656 -88.347656 3.234375 -90.671875 C 3.640625 -92.109375 4.160156 -93.503906 4.796875 -94.859375 C 5.429688 -96.222656 6.25 -97.546875 7.25 -98.828125 C 8.25 -100.109375 9.425781 -101.023438 10.78125 -101.578125 C 12.144531 -102.140625 13.628906 -102.144531 15.234375 -101.59375 C 16.273438 -101.269531 17.253906 -100.585938 18.171875 -99.546875 C 19.085938 -98.503906 19.804688 -97.382812 20.328125 -96.1875 C 20.847656 -94.988281 21.226562 -93.789062 21.46875 -92.59375 C 22.1875 -89.226562 21.90625 -84.953125 20.625 -79.765625 C 19.1875 -73.523438 16.46875 -67.804688 12.46875 -62.609375 C 12.550781 -61.171875 12.632812 -59.734375 12.71875 -58.296875 C 13.507812 -58.929688 15.347656 -60.445312 18.234375 -62.84375 C 20.710938 -64.925781 22.710938 -66.523438 24.234375 -67.640625 C 24.472656 -67.804688 24.832031 -68.085938 25.3125 -68.484375 C 25.789062 -68.878906 26.164062 -69.175781 26.4375 -69.375 C 26.71875 -69.582031 27.078125 -69.820312 27.515625 -70.09375 C 27.960938 -70.375 28.382812 -70.59375 28.78125 -70.75 C 29.1875 -70.914062 29.628906 -71.039062 30.109375 -71.125 C 31.066406 -71.28125 31.941406 -71.019531 32.734375 -70.34375 C 33.535156 -69.664062 33.738281 -68.804688 33.34375 -67.765625 C 33.257812 -67.367188 33.097656 -66.96875 32.859375 -66.5625 C 32.617188 -66.164062 32.316406 -65.742188 31.953125 -65.296875 C 31.597656 -64.859375 31.320312 -64.539062 31.125 -64.34375 C 30.925781 -64.144531 30.546875 -63.765625 29.984375 -63.203125 C 29.421875 -62.648438 29.101562 -62.332031 29.03125 -62.25 C 28.3125 -61.53125 26.550781 -59.847656 23.75 -57.203125 C 23.425781 -56.890625 22.742188 -56.210938 21.703125 -55.171875 C 20.671875 -54.128906 19.875 -53.367188 19.3125 -52.890625 C 18.75 -52.410156 18.007812 -51.789062 17.09375 -51.03125 C 16.175781 -50.269531 15.316406 -49.609375 14.515625 -49.046875 C 18.671875 -44.171875 23.707031 -40.613281 29.625 -38.375 C 32.820312 -37.101562 35.539062 -37.023438 37.78125 -38.140625 C 38.101562 -38.296875 38.484375 -38.515625 38.921875 -38.796875 C 39.359375 -39.078125 39.734375 -39.359375 40.046875 -39.640625 C 40.367188 -39.921875 40.710938 -40.257812 41.078125 -40.65625 C 41.441406 -41.0625 41.757812 -41.398438 42.03125 -41.671875 C 42.3125 -41.953125 42.628906 -42.3125 42.984375 -42.75 C 43.347656 -43.195312 43.648438 -43.539062 43.890625 -43.78125 Z M 14.390625 -94.15625 Z M 13.4375 -94.03125 L 13.1875 -94.15625 L 13.546875 -93.90625 C 13.472656 -93.90625 13.4375 -93.945312 13.4375 -94.03125 Z M 12.59375 -86.109375 C 12.507812 -84.597656 12.445312 -82.5625 12.40625 -80 C 12.375 -77.4375 12.359375 -74.914062 12.359375 -72.4375 C 13.796875 -75.71875 14.832031 -79.078125 15.46875 -82.515625 C 16.351562 -87.554688 16.316406 -90.914062 15.359375 -92.59375 C 15.109375 -93.070312 14.707031 -93.429688 14.15625 -93.671875 C 13.914062 -93.109375 13.632812 -92.304688 13.3125 -91.265625 C 13.226562 -90.710938 13.03125 -89.632812 12.71875 -88.03125 C 12.71875 -87.875 12.71875 -87.753906 12.71875 -87.671875 C 12.71875 -87.585938 12.71875 -87.507812 12.71875 -87.4375 C 12.632812 -87.03125 12.59375 -86.585938 12.59375 -86.109375 Z M 12.59375 -86.109375 "/></g></g></g><g fill="#ffffff" fill-opacity="1"><g transform="translate(276.20059, 236.711725)"><g><path d="M 40.296875 -46.421875 C 41.660156 -46.816406 42.597656 -46.375 43.109375 -45.09375 C 43.628906 -43.8125 43.332031 -42.773438 42.21875 -41.984375 C 41.582031 -41.578125 39.703125 -40.695312 36.578125 -39.34375 C 35.773438 -39.019531 34.691406 -38.519531 33.328125 -37.84375 C 31.972656 -37.164062 31.097656 -36.742188 30.703125 -36.578125 C 30.140625 -36.335938 29.195312 -35.914062 27.875 -35.3125 C 26.5625 -34.71875 25.546875 -34.257812 24.828125 -33.9375 C 28.179688 -25.863281 28.34375 -19.46875 25.3125 -14.75 C 24.03125 -12.675781 22.328125 -11.140625 20.203125 -10.140625 C 18.085938 -9.140625 15.953125 -9 13.796875 -9.71875 C 11.710938 -10.351562 9.972656 -11.585938 8.578125 -13.421875 C 7.179688 -15.265625 6.359375 -17.269531 6.109375 -19.4375 C 5.472656 -24.789062 7.753906 -29.742188 12.953125 -34.296875 C 12.953125 -34.296875 12.910156 -34.335938 12.828125 -34.421875 C 12.753906 -34.578125 12.71875 -34.695312 12.71875 -34.78125 C 11.4375 -37.257812 10.570312 -39.019531 10.125 -40.0625 C 9.6875 -41.101562 9.109375 -42.640625 8.390625 -44.671875 C 7.671875 -46.710938 7.191406 -48.570312 6.953125 -50.25 C 5.992188 -56.40625 7.394531 -61.320312 11.15625 -65 C 12.75 -66.601562 14.90625 -67.523438 17.625 -67.765625 C 20.34375 -68.003906 22.664062 -67.523438 24.59375 -66.328125 C 26.34375 -65.285156 27.695312 -63.820312 28.65625 -61.9375 C 29.625 -60.0625 29.988281 -58.125 29.75 -56.125 C 29.425781 -53.882812 28.363281 -52.144531 26.5625 -50.90625 C 24.769531 -49.664062 22.832031 -49.648438 20.75 -50.859375 C 19.550781 -51.734375 19.210938 -52.828125 19.734375 -54.140625 C 20.253906 -55.460938 21.269531 -55.96875 22.78125 -55.65625 C 23.75 -55.414062 24.191406 -55.851562 24.109375 -56.96875 C 23.953125 -58.488281 23.390625 -59.648438 22.421875 -60.453125 C 22.265625 -60.523438 22.144531 -60.5625 22.0625 -60.5625 C 20.226562 -61.519531 18.832031 -60.800781 17.875 -58.40625 C 17.550781 -57.601562 17.367188 -56.703125 17.328125 -55.703125 C 17.285156 -54.710938 17.320312 -53.796875 17.4375 -52.953125 C 17.5625 -52.109375 17.800781 -51.109375 18.15625 -49.953125 C 18.519531 -48.796875 18.820312 -47.894531 19.0625 -47.25 C 19.3125 -46.613281 19.675781 -45.734375 20.15625 -44.609375 C 20.3125 -44.296875 20.390625 -44.054688 20.390625 -43.890625 C 20.785156 -42.929688 21.382812 -41.613281 22.1875 -39.9375 C 24.664062 -41.132812 27.382812 -42.210938 30.34375 -43.171875 C 36.820312 -45.335938 40.140625 -46.421875 40.296875 -46.421875 Z M 18.109375 -20.984375 C 18.265625 -22.265625 17.625 -24.425781 16.1875 -27.46875 C 16.1875 -27.539062 16.164062 -27.617188 16.125 -27.703125 C 16.09375 -27.785156 16.078125 -27.867188 16.078125 -27.953125 C 13.753906 -25.304688 12.875 -22.828125 13.4375 -20.515625 C 13.832031 -18.828125 14.648438 -18.082031 15.890625 -18.28125 C 17.128906 -18.488281 17.867188 -19.390625 18.109375 -20.984375 Z M 18.109375 -20.984375 "/></g></g></g><g clip-path="url(#59fba31eeb)"><path fill="#ffffff" d="M 228.042969 113.316406 C 227.171875 112.703125 226.167969 112.625 225.171875 112.929688 C 224.453125 113.148438 223.871094 113.617188 223.238281 113.992188 C 221.46875 115.050781 220.117188 115 218.199219 114.476562 C 216.628906 114.046875 213.714844 113.179688 212.566406 114.6875 C 212.085938 114.292969 211.585938 113.984375 211.070312 113.824219 C 209.578125 113.355469 208.015625 114.667969 207.097656 115.765625 C 206.996094 115.882812 206.988281 116.015625 207.03125 116.132812 C 206.636719 116.476562 206.335938 116.886719 206.246094 117.4375 C 206.195312 117.425781 206.144531 117.410156 206.09375 117.398438 C 205.289062 117.113281 204.488281 117.152344 203.707031 117.378906 C 203.429688 117.4375 203.144531 117.507812 202.84375 117.601562 C 202.730469 117.640625 202.675781 117.710938 202.660156 117.796875 C 201.230469 118.5 199.878906 119.664062 198.703125 120.433594 C 194.910156 122.914062 190.976562 125.175781 187.222656 127.71875 C 184.296875 129.703125 179.492188 132.289062 178.808594 136.105469 C 178.25 139.210938 180.164062 142.976562 181.8125 145.488281 C 183.511719 148.070312 186.53125 151.324219 189.695312 151.960938 C 189.824219 151.988281 189.957031 152.007812 190.085938 152.023438 C 190.085938 152.035156 190.085938 152.046875 190.089844 152.054688 C 190.117188 152.226562 190.328125 152.214844 190.398438 152.082031 C 190.402344 152.074219 190.40625 152.066406 190.410156 152.058594 C 192.292969 152.191406 194.199219 151.417969 195.964844 150.449219 C 196.070312 150.425781 196.175781 150.402344 196.28125 150.378906 C 196.371094 150.355469 196.417969 150.273438 196.421875 150.195312 C 197.433594 149.617188 198.398438 148.996094 199.277344 148.476562 C 203.074219 146.226562 206.71875 143.710938 210.261719 141.078125 C 212.988281 139.042969 216.402344 136.421875 217.234375 132.910156 C 217.308594 132.597656 217.34375 132.292969 217.351562 131.984375 C 218.582031 132.695312 219.550781 131.964844 220.757812 130.84375 C 221.832031 129.847656 222.652344 129.179688 222.027344 127.773438 C 221.878906 127.4375 221.691406 127.101562 221.484375 126.769531 C 222.429688 126.476562 223.042969 125.878906 223.414062 124.808594 C 223.734375 123.882812 223.097656 122.960938 223.457031 121.9375 C 224.007812 120.371094 225.578125 119.941406 226.785156 119.128906 C 228.742188 117.8125 230.652344 115.152344 228.042969 113.316406 Z M 212.890625 117.195312 C 212.980469 117.296875 213.066406 117.398438 213.152344 117.5 C 212.050781 118.285156 210.925781 119.375 210.148438 120.558594 C 209.777344 120.070312 209.398438 119.609375 208.996094 119.195312 C 209.007812 119.1875 209.019531 119.179688 209.027344 119.167969 C 209.945312 118.152344 210.984375 117.210938 211.882812 116.171875 C 212.253906 116.488281 212.589844 116.859375 212.890625 117.195312 Z M 216.535156 125.992188 C 216.113281 126.382812 215.691406 126.765625 215.277344 127.160156 C 214.8125 126.566406 214.316406 125.984375 213.828125 125.421875 C 214.21875 125.007812 214.585938 124.570312 214.964844 124.140625 C 215.519531 123.511719 216.164062 122.878906 216.59375 122.144531 C 217.078125 122.769531 217.699219 123.566406 218.296875 124.414062 C 217.660156 124.867188 217.101562 125.472656 216.535156 125.992188 Z M 218.519531 124.734375 C 218.945312 125.355469 219.34375 125.992188 219.660156 126.605469 C 219.109375 127.097656 218.554688 127.582031 217.984375 128.050781 C 217.527344 128.421875 217.035156 128.757812 216.589844 129.136719 C 216.308594 128.605469 215.96875 128.085938 215.59375 127.578125 C 216.089844 127.175781 216.558594 126.738281 217.023438 126.296875 C 217.53125 125.8125 218.097656 125.308594 218.519531 124.734375 Z M 214.777344 123.472656 C 214.328125 123.964844 213.855469 124.445312 213.421875 124.949219 C 212.867188 124.3125 212.347656 123.695312 211.9375 123.105469 C 213.039062 122.160156 214.203125 121.25 215.203125 120.214844 C 215.425781 120.535156 215.644531 120.859375 215.863281 121.179688 C 215.988281 121.359375 216.167969 121.597656 216.386719 121.882812 C 215.78125 122.320312 215.28125 122.921875 214.777344 123.472656 Z M 211.648438 122.691406 C 211.261719 122.125 210.878906 121.5625 210.488281 121.023438 C 210.804688 120.574219 211.117188 120.121094 211.464844 119.699219 C 212.046875 118.996094 212.703125 118.367188 213.351562 117.730469 C 213.910156 118.40625 214.429688 119.117188 214.9375 119.835938 C 213.679688 120.511719 212.589844 121.582031 211.648438 122.691406 Z M 208.96875 115.664062 C 209.167969 115.558594 209.359375 115.472656 209.523438 115.433594 C 210.289062 115.257812 210.949219 115.5 211.53125 115.90625 C 210.429688 116.703125 209.507812 117.871094 208.785156 118.984375 C 208.40625 118.613281 208.003906 118.289062 207.570312 118.023438 C 207.585938 117.027344 208.261719 116.421875 208.96875 115.664062 Z M 215.464844 134.453125 C 213.742188 132.625 212.042969 130.863281 210.765625 128.664062 C 210.71875 128.582031 210.574219 128.609375 210.597656 128.714844 C 211.160156 131.128906 213.304688 133.253906 215.136719 134.964844 C 214.375 136.074219 213.367188 137.082031 212.601562 137.8125 C 209.773438 140.507812 206.382812 142.753906 203.144531 144.914062 C 201.089844 146.285156 198.996094 147.589844 196.84375 148.792969 C 196.144531 149.183594 195.417969 149.613281 194.671875 149.996094 C 193.351562 149.953125 192.234375 149.785156 190.863281 148.878906 C 189.550781 148.007812 188.53125 146.882812 187.316406 145.914062 C 187.21875 145.832031 187.046875 145.933594 187.078125 146.0625 C 187.546875 147.855469 189.398438 149.007812 190.863281 149.960938 C 191.578125 150.425781 192.222656 150.667969 192.863281 150.765625 C 192.324219 150.9375 191.773438 151.058594 191.210938 151.089844 C 191.03125 151.097656 190.851562 151.09375 190.671875 151.085938 C 190.695312 150.851562 190.695312 150.613281 190.683594 150.378906 C 190.675781 150.203125 190.417969 150.207031 190.359375 150.347656 C 190.273438 150.570312 190.199219 150.800781 190.144531 151.035156 C 189.667969 150.964844 189.195312 150.835938 188.734375 150.652344 C 188.746094 150.566406 188.757812 150.480469 188.769531 150.386719 C 188.808594 150.09375 188.886719 149.785156 188.746094 149.507812 C 188.714844 149.441406 188.621094 149.410156 188.5625 149.464844 C 188.328125 149.671875 188.289062 149.972656 188.214844 150.261719 C 188.203125 150.3125 188.191406 150.363281 188.179688 150.410156 C 187.734375 150.195312 187.300781 149.9375 186.875 149.644531 C 186.980469 149.292969 187.101562 148.9375 187.242188 148.601562 C 187.300781 148.457031 187.082031 148.378906 187.015625 148.515625 C 186.859375 148.851562 186.75 149.171875 186.6875 149.515625 C 186.339844 149.265625 186 148.996094 185.671875 148.707031 C 185.757812 148.363281 185.820312 148.011719 185.90625 147.667969 C 185.945312 147.496094 185.703125 147.316406 185.597656 147.503906 C 185.449219 147.773438 185.335938 148.0625 185.289062 148.363281 C 184.96875 148.066406 184.660156 147.753906 184.359375 147.433594 C 184.414062 147.292969 184.457031 147.152344 184.480469 147.007812 C 184.523438 146.777344 184.59375 146.519531 184.546875 146.289062 C 184.523438 146.167969 184.363281 146.128906 184.289062 146.230469 C 184.140625 146.429688 184.09375 146.71875 184.035156 146.957031 C 184.023438 146.992188 184.019531 147.023438 184.015625 147.054688 C 183.695312 146.699219 183.390625 146.332031 183.101562 145.964844 C 183.214844 145.574219 183.300781 145.175781 183.4375 144.792969 C 183.496094 144.636719 183.269531 144.558594 183.199219 144.703125 C 183.046875 145.011719 182.917969 145.320312 182.855469 145.644531 C 182.488281 145.164062 182.148438 144.679688 181.839844 144.214844 C 181.964844 143.898438 182.042969 143.566406 182.136719 143.242188 C 182.167969 143.132812 182.019531 143.074219 181.972656 143.179688 C 181.867188 143.425781 181.75 143.671875 181.65625 143.925781 C 181.40625 143.535156 181.175781 143.160156 180.972656 142.800781 C 180.910156 142.695312 180.851562 142.589844 180.792969 142.480469 C 180.894531 142.054688 180.984375 141.632812 181.054688 141.195312 C 181.070312 141.082031 180.878906 141.035156 180.851562 141.148438 C 180.769531 141.496094 180.699219 141.839844 180.636719 142.1875 C 180.410156 141.753906 180.203125 141.304688 180.027344 140.847656 C 180.273438 140.214844 180.605469 139.554688 180.699219 138.898438 C 180.710938 138.8125 180.605469 138.792969 180.554688 138.84375 C 180.1875 139.234375 179.980469 139.792969 179.84375 140.34375 C 179.703125 139.910156 179.59375 139.46875 179.527344 139.03125 C 179.550781 139.027344 179.574219 139.007812 179.589844 138.976562 C 179.890625 138.152344 180.355469 137.359375 180.597656 136.519531 C 180.625 136.425781 180.507812 136.359375 180.445312 136.4375 C 179.933594 137.054688 179.679688 137.898438 179.484375 138.675781 C 179.363281 137.410156 179.625 136.140625 180.523438 134.960938 C 180.699219 134.734375 180.886719 134.511719 181.085938 134.296875 C 180.644531 135.640625 181.136719 136.996094 181.574219 138.371094 C 182.152344 140.179688 182.84375 142.191406 184.375 143.421875 C 184.527344 143.546875 184.796875 143.347656 184.683594 143.167969 C 183.90625 141.910156 183.136719 140.726562 182.578125 139.347656 C 181.917969 137.722656 180.875 135.597656 181.511719 133.855469 C 182.730469 132.652344 184.246094 131.617188 185.558594 130.648438 C 188.914062 128.179688 192.5 126.050781 196.035156 123.851562 C 197.5 122.941406 198.957031 122.011719 200.382812 121.046875 C 201.578125 120.234375 202.753906 119.273438 204.085938 118.734375 C 204.34375 119.902344 204.996094 121.0625 205.523438 122.121094 C 206.078125 123.242188 206.667969 124.441406 207.464844 125.410156 C 207.582031 125.550781 207.804688 125.410156 207.734375 125.242188 C 207.234375 124.03125 206.511719 122.890625 205.917969 121.722656 C 205.40625 120.707031 205.019531 119.574219 204.410156 118.613281 C 204.496094 118.582031 204.585938 118.554688 204.671875 118.53125 C 205.214844 118.628906 205.746094 118.757812 206.269531 118.988281 C 206.351562 119.023438 206.425781 119.058594 206.503906 119.09375 C 207.246094 120.984375 209.269531 123.066406 210.269531 124.253906 C 212.058594 126.375 213.84375 128.605469 215.792969 130.601562 C 216.078125 131.125 216.253906 131.632812 216.242188 132.097656 C 216.230469 132.882812 215.917969 133.6875 215.464844 134.453125 Z M 219.5625 130.019531 C 218.738281 130.414062 217.960938 130.214844 217.242188 129.75 C 218.285156 129.136719 219.207031 128.105469 219.898438 127.109375 C 220.476562 128.410156 220.574219 129.53125 219.5625 130.019531 Z M 225.5625 118.703125 C 224.828125 119.148438 224.035156 119.539062 223.4375 120.179688 C 222.957031 120.691406 222.679688 121.269531 222.488281 121.878906 C 222.4375 121.65625 222.386719 121.433594 222.371094 121.203125 C 222.359375 121.058594 222.125 121.074219 222.117188 121.214844 C 222.082031 121.628906 222.117188 122.003906 222.351562 122.351562 C 222.25 122.757812 222.167969 123.175781 222.074219 123.589844 C 222.015625 123.449219 221.957031 123.308594 221.90625 123.164062 C 221.824219 122.925781 221.792969 122.496094 221.542969 122.375 C 221.492188 122.351562 221.4375 122.378906 221.40625 122.414062 C 221.363281 122.464844 221.359375 122.5 221.375 122.5625 C 221.382812 122.605469 221.421875 122.652344 221.46875 122.652344 C 221.503906 122.757812 221.515625 122.933594 221.539062 123.007812 C 221.585938 123.167969 221.640625 123.328125 221.703125 123.484375 C 221.777344 123.675781 221.863281 123.867188 221.964844 124.050781 C 221.882812 124.378906 221.785156 124.703125 221.65625 125.019531 C 221.5625 124.796875 221.464844 124.570312 221.367188 124.347656 C 221.203125 123.976562 221.109375 123.527344 220.882812 123.191406 C 220.835938 123.121094 220.71875 123.164062 220.714844 123.242188 C 220.691406 123.652344 220.894531 124.117188 221.03125 124.5 C 221.148438 124.820312 221.300781 125.117188 221.476562 125.402344 C 221.398438 125.550781 221.3125 125.695312 221.214844 125.839844 C 220.691406 124.78125 220.117188 123.753906 219.550781 122.71875 C 219.492188 122.609375 219.316406 122.6875 219.375 122.796875 C 219.949219 123.859375 220.511719 124.921875 221.132812 125.957031 C 221.097656 126 221.0625 126.046875 221.027344 126.089844 C 220.421875 125.242188 219.726562 124.414062 219.1875 123.625 C 218.261719 122.269531 217.34375 120.902344 216.40625 119.558594 C 215.59375 118.390625 214.453125 116.519531 213.132812 115.207031 C 215.363281 113.894531 217.792969 115.695312 220.179688 115.867188 C 222.226562 116.011719 223.070312 114.609375 224.804688 114.085938 C 224.808594 114.140625 224.855469 114.199219 224.917969 114.183594 C 225.09375 114.140625 225.257812 114.089844 225.421875 114.054688 C 225.714844 114.058594 226.007812 114.0625 226.300781 114.070312 C 226.800781 114.21875 227.261719 114.597656 227.550781 115.027344 C 227.605469 115.113281 227.648438 115.195312 227.675781 115.28125 C 227.695312 115.398438 227.714844 115.515625 227.730469 115.628906 C 227.730469 115.949219 227.601562 116.269531 227.484375 116.585938 C 227.332031 116.992188 227.199219 117.394531 227.09375 117.808594 C 226.5625 118.179688 225.917969 118.488281 225.5625 118.703125 Z M 225.5625 118.703125 " fill-opacity="1" fill-rule="nonzero"/></g><path fill="#ffffff" d="M 241.070312 124.191406 C 241.214844 122.320312 239.824219 120.121094 238.144531 118.886719 C 238.132812 118.867188 238.125 118.847656 238.109375 118.828125 C 237.222656 117.816406 234.382812 116.542969 234.902344 119.066406 C 235.019531 119.625 235.359375 120.164062 235.527344 120.714844 C 235.789062 121.570312 235.921875 122.449219 236.066406 123.332031 C 236.269531 124.550781 236.457031 126.253906 237.339844 127.199219 C 239.117188 129.097656 240.953125 125.726562 241.070312 124.191406 Z M 239.636719 125.660156 C 239.210938 126.460938 239.304688 126.496094 238.328125 126.347656 C 237.265625 126.183594 237.355469 125.980469 237.082031 124.914062 C 236.753906 123.632812 236.675781 122.300781 236.347656 121.019531 C 236.210938 120.488281 235.820312 119.890625 235.765625 119.371094 C 235.609375 119.152344 235.667969 118.9375 235.933594 118.726562 C 236.003906 118.191406 236.214844 118.101562 236.570312 118.453125 C 236.613281 118.464844 236.664062 118.488281 236.710938 118.507812 C 237.96875 119.527344 239.269531 120.933594 239.898438 122.382812 C 240.390625 123.519531 240.207031 124.589844 239.636719 125.660156 Z M 239.636719 125.660156 " fill-opacity="1" fill-rule="nonzero"/><path fill="#ffffff" d="M 237.554688 115.628906 C 238.359375 115.957031 239.0625 116.492188 239.882812 116.78125 C 241.21875 117.25 243.222656 117.1875 243.65625 115.496094 C 244.113281 113.703125 241.875 112.96875 240.539062 112.652344 C 239.019531 112.289062 237.359375 112.300781 235.828125 112.710938 C 235.777344 112.675781 235.71875 112.65625 235.648438 112.660156 C 234.6875 112.714844 233.667969 113.074219 233.113281 113.914062 C 233.035156 114.035156 232.992188 114.21875 233.074219 114.355469 C 233.472656 115.015625 234.070312 114.96875 234.820312 115.054688 C 235.761719 115.167969 236.671875 115.265625 237.554688 115.628906 Z M 236.597656 114.417969 C 236.226562 114.324219 235.570312 114.367188 235.214844 114.199219 C 234.53125 114.339844 234.382812 114.15625 234.769531 113.648438 C 235.109375 113.476562 235.453125 113.308594 235.800781 113.148438 C 235.8125 113.140625 235.820312 113.132812 235.832031 113.125 C 236.761719 112.90625 237.703125 112.796875 238.734375 112.878906 C 239.46875 112.9375 240.199219 113.066406 240.90625 113.296875 C 241.429688 113.460938 241.929688 113.679688 242.410156 113.949219 C 242.34375 115.984375 241.746094 116.753906 240.609375 116.257812 C 239.273438 116.171875 237.957031 114.761719 236.597656 114.417969 Z M 236.597656 114.417969 " fill-opacity="1" fill-rule="nonzero"/><g clip-path="url(#66027218f0)"><path fill="#ffffff" d="M 235.984375 109.25 C 236.59375 108.761719 238.035156 107.019531 237.472656 106.179688 C 236.890625 105.308594 235.398438 106.085938 234.765625 106.460938 C 233.484375 107.222656 232.382812 108.210938 231.4375 109.34375 C 231.296875 109.382812 231.15625 109.425781 231.015625 109.46875 C 230.792969 109.542969 230.804688 109.828125 230.945312 109.972656 C 230.875 110.0625 230.808594 110.148438 230.742188 110.242188 C 230.667969 110.34375 230.820312 110.449219 230.894531 110.355469 C 230.980469 110.25 231.070312 110.152344 231.15625 110.046875 C 231.167969 110.046875 231.179688 110.050781 231.195312 110.046875 C 232.320312 109.742188 233.351562 109.816406 234.492188 109.769531 C 235.074219 109.746094 235.527344 109.613281 235.984375 109.25 Z M 235.097656 109.023438 C 234.421875 109.238281 233.90625 109.105469 233.214844 109.097656 C 232.757812 109.09375 232.316406 109.148438 231.882812 109.238281 C 232.351562 108.753906 232.847656 108.292969 233.382812 107.875 C 233.882812 107.476562 234.417969 107.109375 234.972656 106.792969 C 235.640625 106.417969 237.347656 105.914062 236.777344 107.421875 C 236.492188 108.167969 235.824219 108.792969 235.097656 109.023438 Z M 235.097656 109.023438 " fill-opacity="1" fill-rule="nonzero"/></g><path fill="#ffffff" d="M 209.90625 139.746094 C 210.496094 137.996094 210.933594 136.230469 211.199219 134.40625 C 211.203125 134.386719 211.171875 134.382812 211.167969 134.402344 C 210.78125 136.1875 210.347656 137.960938 209.832031 139.714844 C 209.820312 139.765625 209.890625 139.792969 209.90625 139.746094 Z M 209.90625 139.746094 " fill-opacity="1" fill-rule="nonzero"/><path fill="#ffffff" d="M 207.703125 141.011719 C 208.125 139.117188 208.4375 137.207031 208.648438 135.277344 C 208.664062 135.132812 208.449219 135.117188 208.425781 135.257812 C 208.101562 137.167969 207.785156 139.078125 207.480469 140.992188 C 207.457031 141.136719 207.675781 141.148438 207.703125 141.011719 Z M 207.703125 141.011719 " fill-opacity="1" fill-rule="nonzero"/><path fill="#ffffff" d="M 205.398438 136.894531 C 204.898438 139.285156 204.375 141.671875 203.984375 144.085938 C 203.96875 144.191406 204.148438 144.234375 204.171875 144.125 C 204.730469 141.738281 205.15625 139.324219 205.605469 136.914062 C 205.628906 136.78125 205.425781 136.765625 205.398438 136.894531 Z M 205.398438 136.894531 " fill-opacity="1" fill-rule="nonzero"/><path fill="#ffffff" d="M 201.707031 137.324219 C 201.589844 139.53125 201.386719 141.730469 201.242188 143.9375 C 201.230469 144.113281 201.484375 144.132812 201.515625 143.960938 C 201.902344 141.773438 202.058594 139.578125 202.121094 137.363281 C 202.128906 137.097656 201.722656 137.054688 201.707031 137.324219 Z M 201.707031 137.324219 " fill-opacity="1" fill-rule="nonzero"/><path fill="#ffffff" d="M 197.839844 137.773438 C 197.851562 137.597656 197.582031 137.574219 197.566406 137.75 C 197.414062 139.683594 197.242188 141.613281 197.148438 143.550781 C 197.140625 143.6875 197.339844 143.707031 197.355469 143.570312 C 197.5625 141.644531 197.691406 139.707031 197.839844 137.773438 Z M 197.839844 137.773438 " fill-opacity="1" fill-rule="nonzero"/><path fill="#ffffff" d="M 195.140625 141.542969 C 195.195312 141.367188 194.921875 141.265625 194.871094 141.441406 C 194.324219 143.238281 194.070312 145.0625 194.175781 146.941406 C 194.183594 147.039062 194.351562 147.035156 194.351562 146.933594 C 194.34375 145.089844 194.582031 143.300781 195.140625 141.542969 Z M 195.140625 141.542969 " fill-opacity="1" fill-rule="nonzero"/></svg>