<svg xmlns="http://www.w3.org/2000/svg" xmlns:xlink="http://www.w3.org/1999/xlink" width="500" zoomAndPan="magnify" viewBox="0 0 375 374.999991" height="500" preserveAspectRatio="xMidYMid meet" version="1.0"><defs><g/><clipPath id="583bacaebc"><path d="M 291 171 L 337 171 L 337 234 L 291 234 Z M 291 171 " clip-rule="nonzero"/></clipPath><clipPath id="d3f7a9453f"><path d="M 255.21875 157.367188 L 318.910156 127.136719 L 362.003906 217.929688 L 298.3125 248.160156 Z M 255.21875 157.367188 " clip-rule="nonzero"/></clipPath><clipPath id="c2cb9a9178"><path d="M 255.21875 157.367188 L 318.910156 127.136719 L 362.003906 217.929688 L 298.3125 248.160156 Z M 255.21875 157.367188 " clip-rule="nonzero"/></clipPath><clipPath id="c83516d9d9"><path d="M 255.21875 157.367188 L 318.910156 127.136719 L 362.003906 217.929688 L 298.3125 248.160156 Z M 255.21875 157.367188 " clip-rule="nonzero"/></clipPath><clipPath id="d07f141837"><path d="M 302 131 L 328 131 L 328 156 L 302 156 Z M 302 131 " clip-rule="nonzero"/></clipPath><clipPath id="ee595aaae7"><path d="M 255.21875 157.367188 L 318.910156 127.136719 L 362.003906 217.929688 L 298.3125 248.160156 Z M 255.21875 157.367188 " clip-rule="nonzero"/></clipPath><clipPath id="cf551491b1"><path d="M 255.21875 157.367188 L 318.910156 127.136719 L 362.003906 217.929688 L 298.3125 248.160156 Z M 255.21875 157.367188 " clip-rule="nonzero"/></clipPath><clipPath id="19b191fc6a"><path d="M 255.21875 157.367188 L 318.910156 127.136719 L 362.003906 217.929688 L 298.3125 248.160156 Z M 255.21875 157.367188 " clip-rule="nonzero"/></clipPath><clipPath id="ef3db86c07"><path d="M 294 155 L 335 155 L 335 172 L 294 172 Z M 294 155 " clip-rule="nonzero"/></clipPath><clipPath id="b84c8c4a76"><path d="M 255.21875 157.367188 L 318.910156 127.136719 L 362.003906 217.929688 L 298.3125 248.160156 Z M 255.21875 157.367188 " clip-rule="nonzero"/></clipPath><clipPath id="3f3043e2a4"><path d="M 255.21875 157.367188 L 318.910156 127.136719 L 362.003906 217.929688 L 298.3125 248.160156 Z M 255.21875 157.367188 " clip-rule="nonzero"/></clipPath><clipPath id="9a8aca9ce6"><path d="M 255.21875 157.367188 L 318.910156 127.136719 L 362.003906 217.929688 L 298.3125 248.160156 Z M 255.21875 157.367188 " clip-rule="nonzero"/></clipPath><clipPath id="d19eb0ba35"><path d="M 294 194 L 335 194 L 335 231 L 294 231 Z M 294 194 " clip-rule="nonzero"/></clipPath><clipPath id="82a9b501c8"><path d="M 255.21875 157.367188 L 318.910156 127.136719 L 362.003906 217.929688 L 298.3125 248.160156 Z M 255.21875 157.367188 " clip-rule="nonzero"/></clipPath><clipPath id="06fa43928b"><path d="M 255.21875 157.367188 L 318.910156 127.136719 L 362.003906 217.929688 L 298.3125 248.160156 Z M 255.21875 157.367188 " clip-rule="nonzero"/></clipPath><clipPath id="d998655ce6"><path d="M 255.21875 157.367188 L 318.910156 127.136719 L 362.003906 217.929688 L 298.3125 248.160156 Z M 255.21875 157.367188 " clip-rule="nonzero"/></clipPath></defs><g clip-path="url(#583bacaebc)"><g clip-path="url(#d3f7a9453f)"><g clip-path="url(#c2cb9a9178)"><g clip-path="url(#c83516d9d9)"><path fill="#c0dee2" d="M 295.691406 174.078125 C 296.980469 173.277344 297.804688 171.730469 297.742188 171.1875 L 331.277344 171.554688 C 331.203125 172.097656 332.003906 173.664062 333.28125 174.492188 C 334.558594 175.316406 337.507812 178.128906 336.917969 184.015625 C 336.328125 189.902344 335.445312 206.425781 335.804688 211.578125 C 336.167969 216.730469 339.175781 228.757812 329.816406 232.175781 C 329.816406 232.175781 321.625 233.375 313.984375 233.492188 C 306.34375 233.207031 298.175781 231.828125 298.175781 231.828125 C 288.875 228.203125 292.085938 216.246094 292.535156 211.101562 C 292.984375 205.957031 292.382812 189.417969 291.890625 183.519531 C 291.398438 177.621094 294.398438 174.875 295.691406 174.078125 " fill-opacity="1" fill-rule="nonzero"/></g></g></g></g><g clip-path="url(#d07f141837)"><g clip-path="url(#ee595aaae7)"><g clip-path="url(#cf551491b1)"><g clip-path="url(#19b191fc6a)"><path fill="#db9c1d" d="M 303.835938 148.015625 C 305.496094 145.1875 308.789062 144.476562 309.824219 141.710938 C 310.863281 138.945312 309.203125 135.539062 309.898438 133.3125 C 310.59375 131.082031 314.847656 131.332031 314.847656 131.332031 C 314.847656 131.332031 319.109375 131.175781 319.769531 133.421875 C 320.425781 135.664062 318.707031 139.03125 319.695312 141.820312 C 320.6875 144.609375 323.964844 145.390625 325.578125 148.253906 C 327.140625 151.027344 326.460938 154.414062 327.273438 155.371094 L 302.019531 155.09375 C 302.847656 154.152344 302.226562 150.753906 303.835938 148.015625 " fill-opacity="1" fill-rule="nonzero"/></g></g></g></g><g clip-path="url(#ef3db86c07)"><g clip-path="url(#b84c8c4a76)"><g clip-path="url(#3f3043e2a4)"><g clip-path="url(#9a8aca9ce6)"><path fill="#efe7d0" d="M 296.308594 157.011719 C 297.402344 155.394531 300.980469 155.976562 301.9375 155.175781 C 301.964844 155.152344 301.992188 155.121094 302.019531 155.09375 L 327.273438 155.371094 C 327.300781 155.402344 327.328125 155.429688 327.355469 155.457031 C 328.296875 156.277344 331.882812 155.777344 332.953125 157.414062 C 334.019531 159.050781 334.542969 169.015625 334.332031 170.234375 C 334.117188 171.453125 331.347656 171.015625 331.277344 171.554688 L 297.742188 171.1875 C 297.679688 170.644531 294.90625 171.019531 294.710938 169.796875 C 294.519531 168.578125 295.210938 158.625 296.308594 157.011719 " fill-opacity="1" fill-rule="nonzero"/></g></g></g></g><g clip-path="url(#d19eb0ba35)"><g clip-path="url(#82a9b501c8)"><g clip-path="url(#06fa43928b)"><g clip-path="url(#d998655ce6)"><path fill="#fcf8eb" d="M 334.441406 218.234375 C 333.9375 211.96875 332.875 207.773438 333.652344 196.3125 L 294.460938 194.765625 C 294.53125 197.339844 294.539062 214.105469 294.285156 215.445312 C 294.03125 216.78125 293.785156 224.269531 296.214844 226.980469 C 298.644531 229.6875 304.226562 229.527344 309.6875 230.144531 C 315.148438 230.765625 327.757812 230.230469 331.238281 227.589844 C 334.71875 224.945312 334.441406 218.234375 334.441406 218.234375 " fill-opacity="1" fill-rule="nonzero"/></g></g></g></g><g fill="#ffffff" fill-opacity="1"><g transform="translate(30.503926, 216.664702)"><g><path d="M 21.34375 -9.4375 C 23.09375 -9.4375 24.535156 -9.582031 25.671875 -9.875 C 26.804688 -10.164062 27.71875 -10.5625 28.40625 -11.0625 C 29.09375 -11.570312 29.566406 -12.171875 29.828125 -12.859375 C 30.097656 -13.546875 30.234375 -14.3125 30.234375 -15.15625 C 30.234375 -16.957031 29.382812 -18.453125 27.6875 -19.640625 C 26 -20.828125 23.09375 -22.109375 18.96875 -23.484375 C 17.164062 -24.117188 15.363281 -24.847656 13.5625 -25.671875 C 11.769531 -26.492188 10.160156 -27.523438 8.734375 -28.765625 C 7.304688 -30.003906 6.140625 -31.507812 5.234375 -33.28125 C 4.335938 -35.0625 3.890625 -37.222656 3.890625 -39.765625 C 3.890625 -42.296875 4.363281 -44.578125 5.3125 -46.609375 C 6.269531 -48.648438 7.617188 -50.382812 9.359375 -51.8125 C 11.109375 -53.25 13.222656 -54.347656 15.703125 -55.109375 C 18.191406 -55.878906 21 -56.265625 24.125 -56.265625 C 27.832031 -56.265625 31.035156 -55.867188 33.734375 -55.078125 C 36.429688 -54.285156 38.648438 -53.410156 40.390625 -52.453125 L 36.828125 -42.6875 C 35.285156 -43.488281 33.578125 -44.191406 31.703125 -44.796875 C 29.828125 -45.410156 27.566406 -45.71875 24.921875 -45.71875 C 21.953125 -45.71875 19.820312 -45.304688 18.53125 -44.484375 C 17.238281 -43.660156 16.59375 -42.40625 16.59375 -40.71875 C 16.59375 -39.707031 16.828125 -38.859375 17.296875 -38.171875 C 17.773438 -37.484375 18.453125 -36.859375 19.328125 -36.296875 C 20.203125 -35.742188 21.207031 -35.242188 22.34375 -34.796875 C 23.476562 -34.347656 24.734375 -33.882812 26.109375 -33.40625 C 28.960938 -32.351562 31.445312 -31.3125 33.5625 -30.28125 C 35.6875 -29.25 37.445312 -28.039062 38.84375 -26.65625 C 40.25 -25.28125 41.296875 -23.664062 41.984375 -21.8125 C 42.671875 -19.96875 43.015625 -17.722656 43.015625 -15.078125 C 43.015625 -9.941406 41.210938 -5.957031 37.609375 -3.125 C 34.015625 -0.300781 28.59375 1.109375 21.34375 1.109375 C 18.914062 1.109375 16.722656 0.960938 14.765625 0.671875 C 12.804688 0.378906 11.070312 0.0234375 9.5625 -0.390625 C 8.050781 -0.816406 6.753906 -1.265625 5.671875 -1.734375 C 4.585938 -2.210938 3.675781 -2.664062 2.9375 -3.09375 L 6.421875 -12.9375 C 8.066406 -12.039062 10.09375 -11.234375 12.5 -10.515625 C 14.90625 -9.796875 17.851562 -9.4375 21.34375 -9.4375 Z M 21.34375 -9.4375 "/></g></g></g><g fill="#ffffff" fill-opacity="1"><g transform="translate(76.684175, 216.664702)"><g><path d="M 5.15625 -52.140625 L 16.984375 -54.046875 L 16.984375 -41.75 L 31.1875 -41.75 L 31.1875 -31.90625 L 16.984375 -31.90625 L 16.984375 -17.21875 C 16.984375 -14.726562 17.421875 -12.742188 18.296875 -11.265625 C 19.171875 -9.785156 20.925781 -9.046875 23.5625 -9.046875 C 24.832031 -9.046875 26.140625 -9.164062 27.484375 -9.40625 C 28.835938 -9.644531 30.070312 -9.972656 31.1875 -10.390625 L 32.859375 -1.1875 C 31.429688 -0.601562 29.84375 -0.101562 28.09375 0.3125 C 26.34375 0.738281 24.203125 0.953125 21.671875 0.953125 C 18.441406 0.953125 15.765625 0.515625 13.640625 -0.359375 C 11.523438 -1.234375 9.832031 -2.445312 8.5625 -4 C 7.300781 -5.5625 6.414062 -7.453125 5.90625 -9.671875 C 5.40625 -11.898438 5.15625 -14.363281 5.15625 -17.0625 Z M 5.15625 -52.140625 "/></g></g></g><g fill="#ffffff" fill-opacity="1"><g transform="translate(111.914464, 216.664702)"><g><path d="M 44.59375 -20.953125 C 44.59375 -17.671875 44.117188 -14.664062 43.171875 -11.9375 C 42.222656 -9.21875 40.847656 -6.890625 39.046875 -4.953125 C 37.242188 -3.023438 35.085938 -1.53125 32.578125 -0.46875 C 30.066406 0.582031 27.25 1.109375 24.125 1.109375 C 21.050781 1.109375 18.257812 0.582031 15.75 -0.46875 C 13.238281 -1.53125 11.082031 -3.023438 9.28125 -4.953125 C 7.488281 -6.890625 6.085938 -9.21875 5.078125 -11.9375 C 4.078125 -14.664062 3.578125 -17.671875 3.578125 -20.953125 C 3.578125 -24.234375 4.09375 -27.222656 5.125 -29.921875 C 6.15625 -32.617188 7.582031 -34.914062 9.40625 -36.8125 C 11.226562 -38.71875 13.394531 -40.203125 15.90625 -41.265625 C 18.425781 -42.328125 21.164062 -42.859375 24.125 -42.859375 C 27.144531 -42.859375 29.910156 -42.328125 32.421875 -41.265625 C 34.929688 -40.203125 37.082031 -38.71875 38.875 -36.8125 C 40.675781 -34.914062 42.078125 -32.617188 43.078125 -29.921875 C 44.085938 -27.222656 44.59375 -24.234375 44.59375 -20.953125 Z M 32.53125 -20.953125 C 32.53125 -24.597656 31.800781 -27.46875 30.34375 -29.5625 C 28.894531 -31.65625 26.820312 -32.703125 24.125 -32.703125 C 21.425781 -32.703125 19.335938 -31.65625 17.859375 -29.5625 C 16.378906 -27.46875 15.640625 -24.597656 15.640625 -20.953125 C 15.640625 -17.296875 16.378906 -14.394531 17.859375 -12.25 C 19.335938 -10.113281 21.425781 -9.046875 24.125 -9.046875 C 26.820312 -9.046875 28.894531 -10.113281 30.34375 -12.25 C 31.800781 -14.394531 32.53125 -17.296875 32.53125 -20.953125 Z M 32.53125 -20.953125 "/></g></g></g><g fill="#ffffff" fill-opacity="1"><g transform="translate(160.078404, 216.664702)"><g><path d="M 30.71875 -31.265625 C 29.65625 -31.535156 28.410156 -31.8125 26.984375 -32.09375 C 25.554688 -32.382812 24.019531 -32.53125 22.375 -32.53125 C 21.632812 -32.53125 20.75 -32.460938 19.71875 -32.328125 C 18.6875 -32.203125 17.90625 -32.0625 17.375 -31.90625 L 17.375 0 L 5.5625 0 L 5.5625 -39.515625 C 7.675781 -40.253906 10.171875 -40.953125 13.046875 -41.609375 C 15.929688 -42.273438 19.148438 -42.609375 22.703125 -42.609375 C 23.335938 -42.609375 24.101562 -42.566406 25 -42.484375 C 25.894531 -42.410156 26.789062 -42.304688 27.6875 -42.171875 C 28.59375 -42.046875 29.492188 -41.890625 30.390625 -41.703125 C 31.296875 -41.515625 32.066406 -41.289062 32.703125 -41.03125 Z M 30.71875 -31.265625 "/></g></g></g><g fill="#ffffff" fill-opacity="1"><g transform="translate(193.563059, 216.664702)"><g><path d="M 17.375 -26.671875 C 18.539062 -27.929688 19.742188 -29.25 20.984375 -30.625 C 22.234375 -32.007812 23.4375 -33.375 24.59375 -34.71875 C 25.757812 -36.070312 26.859375 -37.351562 27.890625 -38.5625 C 28.921875 -39.78125 29.804688 -40.84375 30.546875 -41.75 L 44.59375 -41.75 C 41.789062 -38.519531 39.050781 -35.4375 36.375 -32.5 C 33.707031 -29.5625 30.785156 -26.53125 27.609375 -23.40625 C 29.203125 -21.976562 30.84375 -20.269531 32.53125 -18.28125 C 34.226562 -16.300781 35.867188 -14.253906 37.453125 -12.140625 C 39.046875 -10.023438 40.503906 -7.910156 41.828125 -5.796875 C 43.148438 -3.679688 44.257812 -1.75 45.15625 0 L 31.578125 0 C 30.734375 -1.375 29.769531 -2.894531 28.6875 -4.5625 C 27.601562 -6.226562 26.453125 -7.894531 25.234375 -9.5625 C 24.015625 -11.226562 22.726562 -12.828125 21.375 -14.359375 C 20.03125 -15.898438 18.695312 -17.195312 17.375 -18.25 L 17.375 0 L 5.5625 0 L 5.5625 -59.671875 L 17.375 -61.578125 Z M 17.375 -26.671875 "/></g></g></g><g fill="#ffffff" fill-opacity="1"><g transform="translate(239.505269, 216.664702)"><g><path d="M 17.53125 -8.484375 C 19.707031 -8.484375 21.242188 -8.695312 22.140625 -9.125 C 23.035156 -9.550781 23.484375 -10.375 23.484375 -11.59375 C 23.484375 -12.539062 22.898438 -13.367188 21.734375 -14.078125 C 20.578125 -14.796875 18.804688 -15.601562 16.421875 -16.5 C 14.578125 -17.1875 12.898438 -17.898438 11.390625 -18.640625 C 9.878906 -19.390625 8.59375 -20.28125 7.53125 -21.3125 C 6.476562 -22.34375 5.660156 -23.570312 5.078125 -25 C 4.492188 -26.425781 4.203125 -28.144531 4.203125 -30.15625 C 4.203125 -34.070312 5.65625 -37.164062 8.5625 -39.4375 C 11.476562 -41.71875 15.472656 -42.859375 20.546875 -42.859375 C 23.085938 -42.859375 25.519531 -42.628906 27.84375 -42.171875 C 30.175781 -41.722656 32.03125 -41.238281 33.40625 -40.71875 L 31.34375 -31.5 C 29.96875 -31.976562 28.472656 -32.398438 26.859375 -32.765625 C 25.242188 -33.140625 23.429688 -33.328125 21.421875 -33.328125 C 17.722656 -33.328125 15.875 -32.296875 15.875 -30.234375 C 15.875 -29.753906 15.953125 -29.328125 16.109375 -28.953125 C 16.265625 -28.585938 16.582031 -28.234375 17.0625 -27.890625 C 17.539062 -27.546875 18.1875 -27.175781 19 -26.78125 C 19.820312 -26.382812 20.867188 -25.945312 22.140625 -25.46875 C 24.734375 -24.519531 26.875 -23.582031 28.5625 -22.65625 C 30.257812 -21.726562 31.597656 -20.722656 32.578125 -19.640625 C 33.554688 -18.554688 34.242188 -17.351562 34.640625 -16.03125 C 35.035156 -14.707031 35.234375 -13.171875 35.234375 -11.421875 C 35.234375 -7.296875 33.6875 -4.175781 30.59375 -2.0625 C 27.5 0.0507812 23.117188 1.109375 17.453125 1.109375 C 13.753906 1.109375 10.675781 0.789062 8.21875 0.15625 C 5.757812 -0.476562 4.050781 -1.003906 3.09375 -1.421875 L 5.078125 -11.03125 C 7.085938 -10.238281 9.148438 -9.613281 11.265625 -9.15625 C 13.378906 -8.707031 15.46875 -8.484375 17.53125 -8.484375 Z M 17.53125 -8.484375 "/></g></g></g></svg>